<?xml version="1.0" encoding="UTF-8" standalone="no"?>
<svg
   xmlns:dc="http://purl.org/dc/elements/1.1/"
   xmlns:cc="http://creativecommons.org/ns#"
   xmlns:rdf="http://www.w3.org/1999/02/22-rdf-syntax-ns#"
   xmlns:svg="http://www.w3.org/2000/svg"
   xmlns="http://www.w3.org/2000/svg"
   viewBox="0 0 1600 358.68533"
   height="100"
   width="100"
   xml:space="preserve"
   id="svg2"
   version="1.1"><metadata
     id="metadata8"><rdf:RDF><cc:Work
         rdf:about=""><dc:format>image/svg+xml</dc:format><dc:type
           rdf:resource="http://purl.org/dc/dcmitype/StillImage" /></cc:Work></rdf:RDF></metadata><defs
     id="defs6"><clipPath
       id="clipPath18"
       clipPathUnits="userSpaceOnUse"><path
         id="path16"
         d="M 0,269.014 H 1200 V 0 H 0 Z" /></clipPath></defs><g
     transform="matrix(1.3333333,0,0,-1.3333333,0,358.68533)"
     id="g10"><g
       id="g12"><g
         clip-path="url(#clipPath18)"
         id="g14"><g
           transform="translate(995.4951,167.0127)"
           id="g20"><path
             id="path22"
             style="fill:#0098d1;fill-opacity:1;fill-rule:evenodd;stroke:none"
             d="m 0,0 c 0.198,0.239 0.471,0.192 0.729,0.187 4.78,-0.078 9.574,0.274 14.334,-0.248 4.735,-0.519 9.581,-3.126 10.82,-8.886 0.145,-0.677 0.387,-1.34 0.545,-2.023 0.158,-0.686 0.334,-1.163 1.126,-0.301 2.674,2.907 5.464,5.703 8.823,7.85 4.565,2.919 9.458,4.849 14.886,5.571 3.751,0.499 7.461,0.403 11.123,-0.189 9.316,-1.505 16.395,-6.312 20.81,-14.797 1.061,-2.038 1.157,-2.084 2.522,-0.285 3.853,5.081 8.646,8.985 14.394,11.72 3.841,1.828 7.867,2.949 12.1,3.539 3.874,0.539 7.719,0.419 11.521,-0.136 11.196,-1.633 19.282,-7.349 23.373,-18.216 1.618,-4.297 2.377,-8.74 2.868,-13.261 0.022,-0.214 -10e-4,-0.442 0.21,-0.588 v -69.559 c -4.786,0.011 -9.574,-0.077 -14.355,0.061 -3.868,0.112 -7.551,0.975 -10.215,4.132 -1.935,2.292 -2.798,5.051 -2.81,7.986 -0.068,15.101 -0.059,30.204 -0.071,45.305 -0.004,3.73 -0.161,7.45 -1.002,11.096 -0.998,4.329 -3.589,7.582 -9.059,7.882 -8.253,0.453 -13.996,-3.528 -18.322,-10.096 -2.577,-3.91 -3.851,-8.324 -4.845,-12.847 -0.758,-3.445 -0.981,-6.925 -0.979,-10.437 0.007,-13.873 -0.015,-27.746 0.036,-41.619 0.004,-1.249 -0.371,-1.487 -1.528,-1.48 -8.166,0.048 -16.331,0.044 -24.497,0.003 -1.08,-0.006 -1.496,0.152 -1.492,1.397 0.05,19.096 0.069,38.194 0.017,57.291 -0.01,3.841 -0.316,7.677 -1.88,11.293 -2.24,5.178 -6.552,6.904 -11.761,6.584 -5.761,-0.353 -9.899,-3.467 -13.174,-7.924 -2.972,-4.047 -4.768,-8.618 -5.908,-13.499 -1.063,-4.553 -1.435,-9.149 -1.426,-13.806 0.025,-13.302 -0.006,-26.604 0.041,-39.906 0.005,-1.178 -0.305,-1.442 -1.451,-1.436 -8.165,0.052 -16.332,0.047 -24.497,0.004 -1.095,-0.006 -1.5,0.186 -1.495,1.412 0.051,12.292 0.029,24.585 0.037,36.878 0,0.429 -0.108,0.88 0.145,1.285 0.177,-0.17 0.17,-0.389 0.17,-0.61 0.003,-12.591 0,-25.182 -0.015,-37.773 -0.015,-0.176 0.282,-0.006 0.108,-0.033 -0.042,-0.006 -0.061,0.015 -0.066,0.063 -0.041,0.39 -0.016,0.781 -0.016,1.171 -0.002,31.897 -0.002,63.795 0.005,95.692 C -0.121,-1.036 -0.25,-0.5 0,0" /></g><g
           transform="translate(501.4687,210.1973)"
           id="g24"><path
             id="path26"
             style="fill:#244582;fill-opacity:1;fill-rule:evenodd;stroke:none"
             d="m 0,0 c 1.979,-0.636 4.004,-1.114 5.838,-2.18 5.943,-3.457 9.232,-10.428 8.069,-17.242 -1.151,-6.743 -6.387,-12.184 -13.027,-13.537 -9.255,-1.888 -17.98,3.918 -19.739,13.427 -1.687,9.114 4.266,17.487 13.141,19.282 0.249,0.05 0.535,-0.005 0.712,0.25 z" /></g><g
           transform="translate(477.5947,67.3867)"
           id="g28"><path
             id="path30"
             style="fill:#244582;fill-opacity:1;fill-rule:evenodd;stroke:none"
             d="m 0,0 c -9.041,0.207 -17.817,-0.271 -26.582,0.26 -4.903,0.297 -8.621,2.716 -11.196,6.849 -2.825,4.535 -5.1,9.372 -7.625,14.071 -3.127,5.817 -6.231,11.647 -9.259,17.515 -0.863,1.673 -2.151,2.447 -3.915,2.666 -1.264,0.158 -2.528,0.268 -3.805,0.234 -2.017,-0.054 -1.765,0.314 -1.767,-1.711 -0.01,-11.811 -0.005,-23.621 -0.004,-35.432 0,-1.097 -0.041,-2.197 0.014,-3.292 0.041,-0.818 -0.158,-1.145 -1.078,-1.141 -8.912,0.035 -17.825,0.033 -26.738,0.002 -0.826,-0.003 -1.07,0.238 -1.036,1.034 0.054,1.271 0.019,2.547 0.019,3.819 10e-4,43.993 0,87.986 0.004,131.98 0,1.959 -0.199,1.718 1.658,1.696 5.221,-0.061 10.446,0.19 15.664,-0.19 5.997,-0.437 9.582,-3.133 10.924,-8.326 0.452,-1.746 0.561,-3.551 0.563,-5.348 0.01,-18.792 0.006,-37.583 0.006,-56.375 0,-1.784 0.001,-1.805 1.85,-1.779 1.49,0.02 2.984,0.048 4.47,0.16 2.398,0.182 4.252,1.167 5.619,3.312 6.213,9.749 12.534,19.43 18.787,29.154 0.428,0.666 0.853,0.956 1.663,0.953 10.185,-0.028 20.372,-0.018 30.558,-0.02 0.206,0 0.413,-0.019 0.832,-0.039 -0.808,-1.22 -1.516,-2.305 -2.238,-3.379 -8.165,-12.142 -16.328,-24.285 -24.502,-36.42 -1.3,-1.93 -2.747,-3.749 -4.396,-5.399 -0.327,-0.328 -0.668,-0.579 -0.184,-1.052 3.755,-3.671 5.756,-8.461 8.047,-13.015 C -17.3,28.176 -9.792,16.246 -2.511,4.181 -1.724,2.875 -0.941,1.566 0,0" /></g><g
           transform="translate(558.7334,156.166)"
           id="g32"><path
             id="path34"
             style="fill:#244582;fill-opacity:1;fill-rule:evenodd;stroke:none"
             d="m 0,0 c 1.663,1.554 3.122,3.186 4.813,4.583 6.878,5.677 14.811,8.517 23.663,8.909 6.093,0.27 12.092,-0.28 17.846,-2.443 9.189,-3.454 14.895,-10.156 17.831,-19.377 1.623,-5.097 2.254,-10.351 2.272,-15.678 0.03,-9.308 -0.005,-18.617 0.013,-27.926 0.023,-11.719 0.074,-23.44 0.105,-35.161 0.005,-1.897 0.197,-1.663 -1.714,-1.639 -4.871,0.057 -9.745,-0.179 -14.612,0.172 -7.583,0.547 -12.048,5.068 -12.373,12.682 -0.314,7.37 -0.097,14.747 -0.124,22.121 -0.03,8.298 0.03,16.597 -0.017,24.895 -0.014,2.494 -0.233,4.981 -0.86,7.423 -1.402,5.452 -4.867,8.101 -10.499,8.285 C 15.156,-12.789 5.123,-19.232 1.79,-32.49 0.983,-35.698 0.588,-38.956 0.581,-42.249 0.551,-57.222 0.55,-72.194 0.59,-87.166 c 0.004,-1.229 -0.239,-1.619 -1.558,-1.608 -8.562,0.068 -17.124,0.057 -25.686,0.009 -1.117,-0.006 -1.351,0.322 -1.351,1.39 0.018,29.109 10e-4,58.22 -0.015,87.33 -0.002,3.467 -0.026,6.936 -0.043,10.404 -0.002,0.528 -0.114,1.029 0.751,1.004 5.087,-0.146 10.189,0.293 15.263,-0.24 C -6.48,10.537 -1.624,7.708 -0.318,0.928 -0.264,0.644 -0.13,0.373 0,0" /></g><g
           transform="translate(872.752,141.0024)"
           id="g36"><path
             id="path38"
             style="fill:#0098d1;fill-opacity:1;fill-rule:evenodd;stroke:none"
             d="m 0,0 c 0,-2.371 -0.032,-4.743 0.017,-7.113 0.016,-0.826 -0.163,-1.155 -1.076,-1.146 -4.566,0.044 -9.136,-0.099 -13.699,0.054 -4.911,0.165 -8.648,2.676 -10.072,7.914 -0.557,2.052 -2.386,2.955 -4.199,3.589 -9.554,3.342 -21.201,0.265 -27.699,-7.544 -2.795,-3.36 -4.598,-7.221 -5.612,-11.502 -1.111,-4.689 -1.28,-9.39 -0.352,-14.078 1.665,-8.407 6.23,-14.721 14.046,-18.48 5.856,-2.817 12.093,-3.565 18.426,-2.556 6.326,1.008 11.976,3.799 17.112,7.643 2.205,1.65 4.325,3.379 6.132,5.46 0.475,0.547 0.712,0.648 1.132,-0.052 3.641,-6.07 7.308,-12.125 10.972,-18.181 0.431,-0.712 0.231,-1.22 -0.307,-1.832 -3.413,-3.881 -7.473,-6.962 -11.837,-9.666 -4.802,-2.978 -9.983,-5.141 -15.44,-6.524 -7.549,-1.913 -15.205,-2.215 -22.951,-1.241 -8.22,1.033 -15.86,3.634 -22.781,8.146 -9.089,5.926 -15.592,13.974 -19.393,24.203 -2.488,6.698 -3.583,13.602 -3.364,20.699 0.424,13.819 5.141,25.886 15.111,35.659 5.771,5.658 12.59,9.605 20.304,12.08 5.633,1.808 11.383,2.719 17.27,2.896 8.012,0.24 15.787,-1.033 23.174,-4.135 C -9.633,22.004 -4.829,18.767 -1.941,13.325 -0.584,10.767 0.067,8.039 0.017,5.138 -0.013,3.426 0.012,1.712 0.012,0 Z" /></g><g
           transform="translate(485.7925,117.4443)"
           id="g40"><path
             id="path42"
             style="fill:#244582;fill-opacity:1;fill-rule:evenodd;stroke:none"
             d="m 0,0 c 0,16.282 -0.001,32.564 0.004,48.846 0,0.576 -0.2,1.234 0.847,1.205 5.218,-0.14 10.446,0.239 15.657,-0.204 6.935,-0.59 11.165,-4.864 11.861,-11.814 0.128,-1.269 0.186,-2.534 0.186,-3.808 -0.004,-27.607 -0.01,-55.214 0.025,-82.822 0.002,-1.149 -0.248,-1.459 -1.434,-1.451 -8.559,0.059 -17.118,0.061 -25.676,-0.002 -1.214,-0.009 -1.411,0.354 -1.408,1.464 0.036,16.195 0.024,32.391 0.024,48.587 C 0.058,0 0.029,0 0,0" /></g><g
           transform="translate(760.6318,66.334)"
           id="g44"><path
             id="path46"
             style="fill:#0098d1;fill-opacity:1;fill-rule:evenodd;stroke:none"
             d="m 0,0 c -8.825,-0.321 -16.715,7.232 -16.688,16.663 0.027,9.379 7.776,16.608 16.601,16.67 C 9.059,33.398 16.74,25.595 16.714,16.61 16.688,7.698 9.187,-0.298 0,0" /></g><g
           transform="translate(732.6875,72.4102)"
           id="g48"><path
             id="path50"
             style="fill:#284268;fill-opacity:1;fill-rule:evenodd;stroke:none"
             d="m 0,0 c -0.273,0.767 -0.146,1.563 -0.146,2.344 -0.006,30.319 -0.002,60.638 0,90.958 0,1.817 0,1.813 -1.858,1.813 -4.168,0.001 -8.337,0.006 -12.505,0.009 0.366,0.363 0.831,0.203 1.251,0.204 4.08,0.013 8.16,-0.016 12.239,0.028 0.881,0.011 1.206,-0.162 1.205,-1.132 C 0.148,63.426 0.143,32.628 0.125,1.83 0.124,1.22 0.044,0.61 0,0" /></g><g
           transform="translate(995.4951,167.0127)"
           id="g52"><path
             id="path54"
             style="fill:#008aab;fill-opacity:1;fill-rule:evenodd;stroke:none"
             d="m 0,0 v -99.356 c -0.394,0.701 -0.256,1.185 -0.257,1.645 -0.01,11.98 -0.008,23.959 -0.011,35.939 -0.001,0.57 -0.025,1.139 -0.039,1.709 -0.01,11.853 -0.023,23.707 -0.03,35.56 -0.004,7.551 -0.005,15.103 0.016,22.654 C -0.319,-1.231 -0.571,-0.533 0,0" /></g><g
           transform="translate(118.7285,97.6055)"
           id="g56"><path
             id="path58"
             style="fill:#244582;fill-opacity:1;fill-rule:nonzero;stroke:none"
             d="m 0,0 c -3.352,-4.273 -8.002,-6.072 -13.245,-6.178 -7.855,-0.156 -15.716,-0.026 -23.574,-0.063 -0.855,-0.003 -0.999,0.283 -0.994,1.05 0.031,4.741 0.016,9.484 0.016,14.225 h 0.035 c 0,4.523 -0.088,9.047 0.022,13.567 0.137,5.637 3.188,8.518 8.787,8.518 4.962,0 9.926,0.094 14.885,-0.024 C -7.709,30.943 -2.314,28.747 1.179,23.103 5.258,16.514 4.727,6.026 0,0 m -37.797,65.521 h 0.032 c 0,3.772 -0.092,7.547 0.022,11.317 0.167,5.489 2.715,8.346 8.171,8.628 5.286,0.274 10.62,0.536 15.889,-0.247 6.565,-0.976 10.858,-5.093 12.121,-11.581 1.108,-5.697 0.362,-11.115 -3.302,-15.815 -2.936,-3.765 -7.056,-5.225 -11.678,-5.282 -6.711,-0.083 -13.424,-0.003 -20.137,-0.044 -0.94,-0.006 -1.152,0.278 -1.14,1.178 0.049,3.949 0.022,7.897 0.022,11.846 M 13.866,41.498 c -0.975,0.52 -1.918,1.1 -2.958,1.699 0.71,0.616 1.296,1.142 1.902,1.645 2.231,1.855 4.346,3.818 6.108,6.143 5.292,6.987 7.32,14.918 6.847,23.572 -0.679,12.42 -6.452,21.705 -17.282,27.788 -7.6,4.268 -15.921,5.806 -24.519,5.891 -11.325,0.112 -22.652,0.072 -33.979,0.008 -4.598,-0.026 -8.367,-1.947 -11.294,-5.527 -1.62,-1.982 -2.393,-4.327 -3.077,-6.724 v -125.68 c 0.482,0.011 0.965,0.035 1.447,0.035 15.716,0.001 31.433,-0.01 47.149,0.006 6.795,0.005 13.459,0.942 19.899,3.152 9.472,3.25 17.288,8.694 22.257,17.598 4.928,8.832 6.02,18.316 3.942,28.121 -2.09,9.86 -7.42,17.46 -16.442,22.273" /></g><g
           transform="translate(702.7197,106.3477)"
           id="g60"><path
             id="path62"
             style="fill:#244582;fill-opacity:1;fill-rule:nonzero;stroke:none"
             d="m 0,0 c -2.726,-7.397 -8.746,-11.655 -16.673,-11.76 -9.908,-0.131 -16.804,4.696 -19.921,14.126 -2.729,8.257 -2.833,16.564 0.386,24.706 2.892,7.315 8.494,11.026 16.326,11.292 4.106,0.139 8.16,-0.259 11.903,-2.159 C -2.805,33.577 -0.28,29.006 1.043,23.611 1.852,20.315 2.083,16.95 2.11,13.274 2.056,8.942 1.615,4.384 0,0 M 28.739,61.318 C 25.581,61.25 22.421,61.31 19.262,61.285 17.994,61.275 16.72,61.422 15.458,61.186 10.231,61.107 6.627,58.565 4.44,53.831 c -1.981,1.782 -4.01,3.378 -6.279,4.645 -8.695,4.854 -18.092,6.017 -27.758,4.684 -16.841,-2.324 -28.287,-11.777 -34.304,-27.54 -4.94,-12.936 -5.071,-26.229 -1.373,-39.515 2.511,-9.024 7.18,-16.812 14.407,-22.894 9.003,-7.575 19.543,-10.483 31.15,-9.934 7.632,0.363 14.642,2.493 20.617,7.459 0.151,0.125 0.302,0.343 0.623,0.183 0.142,-1.757 0.05,-3.538 -0.141,-5.312 -0.749,-6.923 -3.999,-12.172 -10.452,-15.117 -7.02,-3.202 -14.386,-3.044 -21.808,-1.948 -4.127,0.609 -8.058,1.975 -12.047,3.135 -4.867,1.416 -8.153,-0.142 -10.391,-4.663 -0.214,-0.432 -0.431,-0.864 -0.609,-1.311 -1.699,-4.262 -3.367,-8.537 -5.104,-12.784 -0.362,-0.882 -0.181,-1.242 0.646,-1.689 7.354,-3.964 15.188,-6.485 23.4,-7.883 2.357,-0.402 4.734,-0.694 7.102,-1.035 h 10.803 c 0.176,0.27 0.46,0.207 0.712,0.224 3.459,0.243 6.867,0.818 10.227,1.654 8.902,2.214 16.989,6.024 23.591,12.532 8.169,8.051 11.908,18.04 12.516,29.34 -0.037,0.527 -0.018,1.053 -0.018,1.58 -10e-4,30.542 -10e-4,61.083 -10e-4,91.625 0,0.263 -0.033,0.532 0.006,0.789 0.147,0.966 -0.202,1.284 -1.216,1.262" /></g><g
           transform="translate(957.0908,118.4746)"
           id="g64"><path
             id="path66"
             style="fill:#0098d1;fill-opacity:1;fill-rule:nonzero;stroke:none"
             d="m 0,0 c -0.013,-7.435 -1.43,-13.501 -5.271,-18.83 -3.223,-4.469 -7.522,-7.37 -12.911,-8.649 -5.453,-1.292 -10.819,-0.992 -15.922,1.272 -5.155,2.286 -8.858,6.198 -11.301,11.288 -2.298,4.784 -3.257,9.884 -3.055,15.127 0.297,7.707 2.417,14.801 8.216,20.295 5.204,4.931 11.528,6.734 18.557,5.992 C -11.612,25.432 -5.237,19.59 -1.776,10.381 -0.42,6.773 0.187,2.944 0,0 m 26.627,12.633 c -0.949,4.201 -2.518,8.214 -4.558,12.034 -4.47,8.371 -10.833,14.904 -19.085,19.551 -6.494,3.657 -13.484,5.714 -20.918,6.524 -5.063,0.551 -10.076,0.447 -15.07,-0.253 -5.366,-0.753 -10.539,-2.289 -15.438,-4.664 -8.334,-4.04 -15.114,-9.876 -20.063,-17.714 -5.57,-8.825 -8.141,-18.52 -7.984,-28.945 0.057,-2.588 0.113,-5.153 0.453,-7.739 0.753,-5.72 2.35,-11.15 4.87,-16.313 3.735,-7.652 9.135,-13.911 16.16,-18.704 7.605,-5.187 16.097,-7.983 25.227,-8.827 9.069,-0.838 17.925,0.282 26.407,3.609 8.236,3.23 15.191,8.31 20.68,15.304 3.873,4.937 6.7,10.409 8.49,16.437 1.162,3.916 1.809,7.891 2.181,11.959 0.546,6.011 -0.036,11.913 -1.352,17.741" /></g><g
           transform="translate(346.4019,117.5439)"
           id="g68"><path
             id="path70"
             style="fill:#244582;fill-opacity:1;fill-rule:nonzero;stroke:none"
             d="m 0,0 c -0.04,-6.877 -1.541,-13.329 -5.93,-18.802 -5.041,-6.285 -11.774,-8.814 -19.713,-8.487 -11.194,0.461 -19.733,8.382 -22.097,20.102 -1.691,8.384 -0.921,16.53 3.656,23.963 5.058,8.217 13.559,11.942 23.089,10.62 C -10.387,25.925 -4.158,19.347 -1.182,9.365 -0.274,6.32 0.065,3.183 0,0 m 0.386,46.401 c -13.67,6.697 -28.013,7.403 -42.449,2.78 -14.805,-4.742 -25.163,-14.51 -30.851,-29.03 -3.976,-10.149 -4.626,-20.648 -2.525,-31.284 2.427,-12.287 8.472,-22.45 18.512,-30.065 9.609,-7.288 20.609,-10.36 32.547,-10.442 4.538,-0.025 9.021,0.432 13.426,1.5 15.21,3.691 26.711,12.254 33.669,26.369 5.642,11.442 6.746,23.567 4.062,35.99 C 23.417,27.77 14.685,39.397 0.386,46.401" /></g><g
           transform="translate(230.7544,102.0518)"
           id="g72"><path
             id="path74"
             style="fill:#244582;fill-opacity:1;fill-rule:nonzero;stroke:none"
             d="m 0,0 c -3.873,-7.189 -10.157,-11.021 -18.304,-11.735 -13.139,-1.153 -22.743,7.199 -25.544,19.32 -0.216,0.936 -0.369,1.89 -0.527,2.838 -0.29,1.736 -0.386,3.485 -0.342,5.25 0.028,7.061 1.645,13.641 6.24,19.191 5.533,6.684 12.834,9.127 21.251,8.022 C -7.73,41.638 -1.416,36.084 1.766,27.215 5.082,17.972 4.702,8.728 0,0 m 4.357,61.783 c -12.28,6.155 -25.296,7.238 -38.539,4.076 -15.785,-3.77 -27.331,-13.054 -34.043,-27.951 -4.456,-9.891 -5.456,-20.305 -3.879,-30.985 1.737,-11.766 6.782,-21.861 15.627,-29.883 10.164,-9.218 22.362,-13.071 35.897,-13.191 5.256,-0.035 10.427,0.594 15.47,2.031 14.622,4.163 25.513,12.899 31.994,26.747 5.13,10.96 6.169,22.505 3.793,34.293 -3.18,15.782 -11.858,27.616 -26.32,34.863" /></g></g></g></g></svg>