<svg width="57" height="58" viewBox="0 0 57 58" fill="none" xmlns="http://www.w3.org/2000/svg">
<path d="M28.5128 14.2395C32.3806 14.2395 36.0901 15.776 38.8251 18.511C41.5601 21.246 43.0966 24.9554 43.0966 28.8233M25.5966 2.74827C26.5641 2.63027 27.538 2.57183 28.5128 2.57327C35.4747 2.57327 42.1515 5.33889 47.0743 10.2617C51.9971 15.1845 54.7628 21.8613 54.7628 28.8233C54.7628 29.7986 54.7044 30.7707 54.5878 31.7395" stroke="black" stroke-width="3" stroke-linecap="round" stroke-linejoin="round"/>
<path d="M37.2624 55.0732C32.7411 53.9953 28.4523 52.1075 24.6036 49.5012L29.9124 41.8908C30.7852 40.6999 32.0772 39.8842 33.5277 39.6082C34.9783 39.3323 36.4795 39.6167 37.7286 40.404C38.6918 41.0158 39.683 41.5702 40.6462 42.1246C41.3707 42.4789 42.0139 42.9795 42.5351 43.5949C43.0563 44.2103 43.4443 44.9271 43.6745 45.7C43.9047 46.4729 43.9722 47.2851 43.8727 48.0854C43.7732 48.8857 43.5088 49.6567 43.0962 50.3496L41.2874 53.1216C40.9636 53.8768 40.3784 54.49 39.6391 54.8487C38.8998 55.2074 38.056 55.2862 37.2624 55.0732ZM4.21683 16.1952L7.13303 14.385C7.80946 13.946 8.56956 13.6521 9.36533 13.5216C10.1611 13.3912 10.9753 13.4272 11.7564 13.6273C12.5376 13.8274 13.2688 14.1872 13.9039 14.6842C14.539 15.1811 15.0641 15.8043 15.4462 16.5144C16.0006 17.5644 16.5536 18.557 17.1668 19.432C17.954 20.6813 18.2382 22.1826 17.962 23.6332C17.6858 25.0838 16.8698 26.3756 15.6786 27.2482L7.92123 32.6438C5.29403 28.8282 3.37704 24.5698 2.26243 20.0732C2.088 19.3005 2.18757 18.4911 2.54409 17.7837C2.90062 17.0763 3.49193 16.5147 4.21683 16.1952Z" stroke="black" stroke-width="3" stroke-linecap="round" stroke-linejoin="round"/>
<path d="M7.92078 32.6453C10.065 36.006 12.5901 39.1079 15.4458 41.8895C18.2278 44.7452 21.3302 47.2703 24.6914 49.4145" stroke="black" stroke-width="3" stroke-linecap="round" stroke-linejoin="round"/>
</svg>
