<svg width="22" height="22" viewBox="0 0 22 22" fill="none" xmlns="http://www.w3.org/2000/svg">
<path d="M16.8571 4.73779H3.14286C2.83975 4.73779 2.54906 4.86422 2.33474 5.08926C2.12041 5.31431 2 5.61953 2 5.93779V15.5378C2 15.8561 2.12041 16.1613 2.33474 16.3863C2.54906 16.6114 2.83975 16.7378 3.14286 16.7378H16.8571C17.1602 16.7378 17.4509 16.6114 17.6653 16.3863C17.8796 16.1613 18 15.8561 18 15.5378V5.93779C18 5.61953 17.8796 5.31431 17.6653 5.08926C17.4509 4.86422 17.1602 4.73779 16.8571 4.73779ZM15.6 5.93779L10 10.0058L4.4 5.93779H15.6ZM3.14286 15.5378V6.48379L9.67429 11.2298C9.76994 11.2995 9.88358 11.3368 10 11.3368C10.1164 11.3368 10.2301 11.2995 10.3257 11.2298L16.8571 6.48379V15.5378H3.14286Z" fill="black" fill-opacity="0.8"/>
</svg>
