<svg width="22" height="22" viewBox="0 0 22 22" fill="none" xmlns="http://www.w3.org/2000/svg">
<path d="M10 12C9.40666 12 8.82664 11.8241 8.33329 11.4944C7.83994 11.1648 7.45543 10.6962 7.22836 10.1481C7.0013 9.59987 6.94189 8.99667 7.05765 8.41473C7.1734 7.83279 7.45912 7.29824 7.87868 6.87868C8.29824 6.45912 8.83279 6.1734 9.41473 6.05765C9.99667 5.94189 10.5999 6.0013 11.1481 6.22836C11.6962 6.45543 12.1648 6.83994 12.4944 7.33329C12.8241 7.82664 13 8.40666 13 9C12.999 9.79536 12.6827 10.5579 12.1203 11.1203C11.5579 11.6827 10.7954 11.999 10 12ZM10 7.2C9.64399 7.2 9.29598 7.30557 8.99997 7.50336C8.70397 7.70114 8.47326 7.98226 8.33702 8.31117C8.20078 8.64008 8.16513 9.002 8.23459 9.35116C8.30404 9.70033 8.47547 10.0211 8.72721 10.2728C8.97894 10.5245 9.29967 10.696 9.64884 10.7654C9.998 10.8349 10.3599 10.7992 10.6888 10.663C11.0177 10.5267 11.2989 10.296 11.4966 10C11.6944 9.70402 11.8 9.35601 11.8 9C11.7995 8.52276 11.6097 8.0652 11.2723 7.72774C10.9348 7.39027 10.4772 7.20048 10 7.2Z" fill="black" fill-opacity="0.8"/>
<path d="M10 20L4.63164 13.6042C4.55704 13.5082 4.48322 13.4115 4.41019 13.3143C3.49364 12.0938 2.9983 10.6034 3 9.07143C3 7.19597 3.7375 5.39732 5.05026 4.07117C6.36301 2.74502 8.14349 2 10 2C11.8565 2 13.637 2.74502 14.9497 4.07117C16.2625 5.39732 17 7.19597 17 9.07143C17.0015 10.6027 16.5064 12.0923 15.5905 13.3124L15.5898 13.3143C15.5898 13.3143 15.3989 13.5676 15.3703 13.6016L10 20ZM5.42646 12.5396C5.42646 12.5396 5.57473 12.7376 5.60846 12.7801L10 18.0123L14.3973 12.773C14.4253 12.7376 14.5742 12.5384 14.5748 12.5377C15.324 11.5407 15.7288 10.3231 15.7273 9.07143C15.7273 7.53696 15.1239 6.06534 14.0498 4.98031C12.9757 3.89528 11.519 3.28571 10 3.28571C8.48103 3.28571 7.02428 3.89528 5.95021 4.98031C4.87614 6.06534 4.27273 7.53696 4.27273 9.07143C4.27116 10.3239 4.67647 11.5423 5.42646 12.5396Z" fill="black" fill-opacity="0.8"/>
</svg>
