<svg width="965" height="671" viewBox="0 0 965 671" fill="none" xmlns="http://www.w3.org/2000/svg">
<g opacity="0.04">
<path d="M424.55 156.528L358.94 77.418L293.33 156.528V462.878" stroke="#CCDDE2" stroke-width="4.01" stroke-miterlimit="10"/>
<g opacity="0.81">
<path opacity="0.81" d="M317.59 169.75H335.22V187.38H317.59V169.75Z" stroke="#CCDDE2" stroke-width="4.01" stroke-miterlimit="10"/>
<path opacity="0.81" d="M350.93 169.75H368.56V187.38H350.93V169.75Z" stroke="#CCDDE2" stroke-width="4.01" stroke-miterlimit="10"/>
<path opacity="0.81" d="M384.26 169.75H401.89V187.38H384.26V169.75Z" stroke="#CCDDE2" stroke-width="4.01" stroke-miterlimit="10"/>
</g>
<g opacity="0.46">
<path opacity="0.46" d="M317.59 210.7H335.22V228.33H317.59V210.7Z" stroke="#CCDDE2" stroke-width="4.01" stroke-miterlimit="10"/>
<path opacity="0.46" d="M350.93 210.7H368.56V228.33H350.93V210.7Z" stroke="#CCDDE2" stroke-width="4.01" stroke-miterlimit="10"/>
<path opacity="0.46" d="M384.26 210.7H401.89V228.33H384.26V210.7Z" stroke="#CCDDE2" stroke-width="4.01" stroke-miterlimit="10"/>
</g>
<g opacity="0.25">
<path opacity="0.25" d="M317.59 253.379H335.22V271.009H317.59V253.379Z" stroke="#CCDDE2" stroke-width="4.01" stroke-miterlimit="10"/>
<path opacity="0.25" d="M350.93 253.379H368.56V271.009H350.93V253.379Z" stroke="#CCDDE2" stroke-width="4.01" stroke-miterlimit="10"/>
<path opacity="0.25" d="M384.26 253.379H401.89V271.009H384.26V253.379Z" stroke="#CCDDE2" stroke-width="4.01" stroke-miterlimit="10"/>
</g>
<g opacity="0.25">
<path opacity="0.25" d="M317.59 290.047H335.22V307.677H317.59V290.047Z" stroke="#CCDDE2" stroke-width="4.01" stroke-miterlimit="10"/>
<path opacity="0.25" d="M350.93 290.047H368.56V307.677H350.93V290.047Z" stroke="#CCDDE2" stroke-width="4.01" stroke-miterlimit="10"/>
<path opacity="0.25" d="M384.26 290.047H401.89V307.677H384.26V290.047Z" stroke="#CCDDE2" stroke-width="4.01" stroke-miterlimit="10"/>
</g>
<path d="M268.92 414.86V43.1799H98.65V463.59" stroke="#CCDDE2" stroke-width="4.01" stroke-miterlimit="10"/>
<path d="M252 77.42V99.17H230.25V59.25H252V77.42ZM248.43 62.82H233.83V77.42H248.43V62.82ZM248.43 81H233.83V95.56H248.43V81Z" fill="#D7E8F0"/>
<path d="M213.64 77.42V99.17H191.9V59.25H213.64V77.42ZM210.07 62.82H195.47V77.42H210.07V62.82ZM210.07 81H195.47V95.56H210.07V81Z" fill="#D7E8F0"/>
<path d="M176.34 77.42V99.17H154.6V59.25H176.34V77.42ZM172.77 62.82H158.17V77.42H172.77V62.82ZM172.77 81H158.17V95.56H172.77V81Z" fill="#D7E8F0"/>
<path d="M141.23 59.25V99.17H119.49V59.25H141.23ZM123.06 95.56H137.66V81H123.06V95.56ZM123.06 77.39H137.66V62.79H123.06V77.39Z" fill="#D7E8F0"/>
<path d="M252 131.12V152.87H230.25V112.95H252V131.12ZM248.43 116.52H233.83V131.12H248.43V116.52ZM248.43 134.69H233.83V149.3H248.43V134.69Z" fill="#D7E8F0"/>
<path d="M213.64 131.12V152.87H191.9V112.95H213.64V131.12ZM210.07 116.52H195.47V131.12H210.07V116.52ZM210.07 134.69H195.47V149.3H210.07V134.69Z" fill="#D7E8F0"/>
<path d="M176.34 131.12V152.87H154.6V112.95H176.34V131.12ZM172.77 116.52H158.17V131.12H172.77V116.52ZM172.77 134.69H158.17V149.3H172.77V134.69Z" fill="#D7E8F0"/>
<path d="M141.23 131.12V152.87H119.49V112.95H141.23V131.12ZM137.66 116.52H123.06V131.12H137.66V116.52ZM137.66 134.69H123.06V149.3H137.66V134.69Z" fill="#D7E8F0"/>
<path d="M252 184.819V206.559H230.25V166.649H252V184.819ZM248.43 170.219H233.83V184.819H248.43V170.219ZM248.43 188.399H233.83V202.999H248.43V188.399Z" fill="#D7E8F0"/>
<path d="M213.64 184.819V206.559H191.9V166.649H213.64V184.819ZM210.07 170.219H195.47V184.819H210.07V170.219ZM210.07 188.399H195.47V202.999H210.07V188.399Z" fill="#D7E8F0"/>
<path d="M176.34 184.819V206.559H154.6V166.649H176.34V184.819ZM172.77 170.219H158.17V184.819H172.77V170.219ZM172.77 188.399H158.17V202.999H172.77V188.399Z" fill="#D7E8F0"/>
<path d="M141.23 184.819V206.559H119.49V166.649H141.23V184.819ZM137.66 170.219H123.06V184.819H137.66V170.219ZM137.66 188.399H123.06V202.999H137.66V188.399Z" fill="#D7E8F0"/>
<path d="M252 238.558V260.298H230.25V220.348H252V238.558ZM248.43 223.958H233.83V238.558H248.43V223.958ZM248.43 242.128H233.83V256.728H248.43V242.128Z" fill="#D7E8F0"/>
<path d="M213.64 238.558V260.298H191.9V220.348H213.64V238.558ZM210.07 223.958H195.47V238.558H210.07V223.958ZM210.07 242.128H195.47V256.728H210.07V242.128Z" fill="#D7E8F0"/>
<path d="M176.34 238.558V260.298H154.6V220.348H176.34V238.558ZM172.77 223.958H158.17V238.558H172.77V223.958ZM172.77 242.128H158.17V256.728H172.77V242.128Z" fill="#D7E8F0"/>
<path d="M141.23 238.558V260.298H119.49V220.348H141.23V238.558ZM137.66 223.958H123.06V238.558H137.66V223.958ZM137.66 242.128H123.06V256.728H137.66V242.128Z" fill="#D7E8F0"/>
<path d="M252 292.217V313.967H230.25V274.047H252V292.217ZM248.43 277.627H233.83V292.217H248.43V277.627ZM248.43 295.797H233.83V310.397H248.43V295.797Z" fill="#D7E8F0"/>
<path d="M213.64 292.217V313.967H191.9V274.047H213.64V292.217ZM210.07 277.627H195.47V292.217H210.07V277.627ZM210.07 295.797H195.47V310.397H210.07V295.797Z" fill="#D7E8F0"/>
<path d="M176.34 292.217V313.967H154.6V274.047H176.34V292.217ZM172.77 277.627H158.17V292.217H172.77V277.627ZM172.77 295.797H158.17V310.397H172.77V295.797Z" fill="#D7E8F0"/>
<path d="M141.23 292.217V313.967H119.49V274.047H141.23V292.217ZM137.66 277.627H123.06V292.217H137.66V277.627ZM137.66 295.797H123.06V310.397H137.66V295.797Z" fill="#D7E8F0"/>
<path d="M658.65 463.699V295.409C658.651 271.948 666.85 249.225 681.83 231.169C684.472 227.985 687.782 225.422 691.527 223.663C695.272 221.904 699.358 220.993 703.495 220.993C707.632 220.993 711.718 221.904 715.463 223.663C719.208 225.422 722.519 227.985 725.16 231.169C740.14 249.225 748.339 271.948 748.34 295.409V464.009" stroke="#CCDDE2" stroke-width="4.01" stroke-miterlimit="10"/>
<g opacity="0.81">
<path opacity="0.81" d="M731.75 280.18H719.7V268.13H731.75V280.18Z" stroke="#CCDDE2" stroke-width="4.01" stroke-miterlimit="10"/>
<path opacity="0.81" d="M708.98 280.18H696.93V268.13H708.98V280.18Z" stroke="#CCDDE2" stroke-width="4.01" stroke-miterlimit="10"/>
<path opacity="0.81" d="M686.2 280.18H674.15V268.13H686.2V280.18Z" stroke="#CCDDE2" stroke-width="4.01" stroke-miterlimit="10"/>
</g>
<g opacity="0.46">
<path opacity="0.46" d="M731.75 308.168H719.7V296.118H731.75V308.168Z" stroke="#CCDDE2" stroke-width="4.01" stroke-miterlimit="10"/>
<path opacity="0.46" d="M708.98 308.168H696.93V296.118H708.98V308.168Z" stroke="#CCDDE2" stroke-width="4.01" stroke-miterlimit="10"/>
<path opacity="0.46" d="M686.2 308.168H674.15V296.118H686.2V308.168Z" stroke="#CCDDE2" stroke-width="4.01" stroke-miterlimit="10"/>
</g>
<g opacity="0.25">
<path opacity="0.25" d="M731.75 337.34H719.7V325.29H731.75V337.34Z" stroke="#CCDDE2" stroke-width="4.01" stroke-miterlimit="10"/>
<path opacity="0.25" d="M708.98 337.34H696.93V325.29H708.98V337.34Z" stroke="#CCDDE2" stroke-width="4.01" stroke-miterlimit="10"/>
<path opacity="0.25" d="M686.2 337.34H674.15V325.29H686.2V337.34Z" stroke="#CCDDE2" stroke-width="4.01" stroke-miterlimit="10"/>
</g>
<g opacity="0.25">
<path opacity="0.25" d="M731.75 362.399H719.7V350.349H731.75V362.399Z" stroke="#CCDDE2" stroke-width="4.01" stroke-miterlimit="10"/>
<path opacity="0.25" d="M708.98 362.399H696.93V350.349H708.98V362.399Z" stroke="#CCDDE2" stroke-width="4.01" stroke-miterlimit="10"/>
<path opacity="0.25" d="M686.2 362.399H674.15V350.349H686.2V362.399Z" stroke="#CCDDE2" stroke-width="4.01" stroke-miterlimit="10"/>
</g>
<path d="M881.39 464.469V181.629H765.01V464.069" stroke="#CCDDE2" stroke-width="4.01" stroke-miterlimit="10"/>
<path d="M776.58 205.03V219.89H791.44V192.61H776.58V205.03ZM779.03 195.03H789V205.03H779L779.03 195.03ZM779.03 207.45H789V217.45H779L779.03 207.45Z" fill="#D7E8F0"/>
<path d="M802.8 205.03V219.89H817.66V192.61H802.8V205.03ZM805.24 195.03H815.24V205.03H805.24V195.03ZM805.24 207.45H815.24V217.45H805.24V207.45Z" fill="#D7E8F0"/>
<path d="M828.29 205.03V219.89H843.15V192.61H828.29V205.03ZM830.73 195.03H840.73V205.03H830.73V195.03ZM830.73 207.45H840.73V217.45H830.73V207.45Z" fill="#D7E8F0"/>
<path d="M852.29 192.61V219.89H867.15V192.61H852.29ZM864.71 217.45H854.71V207.45H864.71V217.45ZM864.71 205.03H854.71V195.03H864.71V205.03Z" fill="#D7E8F0"/>
<path d="M776.58 241.731V256.561H791.44V229.321H776.58V241.731ZM779.03 231.731H789V241.731H779L779.03 231.731ZM779.03 244.151H789V254.151H779L779.03 244.151Z" fill="#D7E8F0"/>
<path d="M802.8 241.731V256.561H817.66V229.321H802.8V241.731ZM805.24 231.731H815.24V241.731H805.24V231.731ZM805.24 244.151H815.24V254.151H805.24V244.151Z" fill="#D7E8F0"/>
<path d="M828.29 241.731V256.561H843.15V229.321H828.29V241.731ZM830.73 231.731H840.73V241.731H830.73V231.731ZM830.73 244.151H840.73V254.151H830.73V244.151Z" fill="#D7E8F0"/>
<path d="M852.29 241.731V256.561H867.15V229.321H852.29V241.731ZM854.73 231.731H864.73V241.731H854.73V231.731ZM854.73 244.151H864.73V254.151H854.73V244.151Z" fill="#D7E8F0"/>
<path d="M776.58 278.44V293.3H791.44V266.02H776.58V278.44ZM779.03 268.44H789V278.44H779L779.03 268.44ZM779.03 280.86H789V290.86H779L779.03 280.86Z" fill="#D7E8F0"/>
<path d="M802.8 278.44V293.3H817.66V266.02H802.8V278.44ZM805.24 268.44H815.24V278.44H805.24V268.44ZM805.24 280.86H815.24V290.86H805.24V280.86Z" fill="#D7E8F0"/>
<path d="M828.29 278.44V293.3H843.15V266.02H828.29V278.44ZM830.73 268.44H840.73V278.44H830.73V268.44ZM830.73 280.86H840.73V290.86H830.73V280.86Z" fill="#D7E8F0"/>
<path d="M852.29 278.44V293.3H867.15V266.02H852.29V278.44ZM854.73 268.44H864.73V278.44H854.73V268.44ZM854.73 280.86H864.73V290.86H854.73V280.86Z" fill="#D7E8F0"/>
<path d="M776.58 315.139V329.999H791.44V302.719H776.58V315.139ZM779.03 305.139H789V315.139H779L779.03 305.139ZM779 317.559H789V327.559H779V317.559Z" fill="#D7E8F0"/>
<path d="M802.8 315.139V329.999H817.66V302.719H802.8V315.139ZM805.24 305.139H815.24V315.139H805.24V305.139ZM805.24 317.559H815.24V327.559H805.24V317.559Z" fill="#D7E8F0"/>
<path d="M828.29 315.139V329.999H843.15V302.719H828.29V315.139ZM830.73 305.139H840.73V315.139H830.73V305.139ZM830.73 317.559H840.73V327.559H830.73V317.559Z" fill="#D7E8F0"/>
<path d="M852.29 315.139V329.999H867.15V302.719H852.29V315.139ZM854.73 305.139H864.73V315.139H854.73V305.139ZM854.73 317.559H864.73V327.559H854.73V317.559Z" fill="#D7E8F0"/>
<path d="M776.58 351.838V366.698H791.44V339.418H776.58V351.838ZM779.03 341.838H789V351.838H779L779.03 341.838ZM779.03 354.258H789V364.258H779L779.03 354.258Z" fill="#D7E8F0"/>
<path d="M802.8 351.838V366.698H817.66V339.418H802.8V351.838ZM805.24 341.838H815.24V351.838H805.24V341.838ZM805.24 354.258H815.24V364.258H805.24V354.258Z" fill="#D7E8F0"/>
<path d="M828.29 351.838V366.698H843.15V339.418H828.29V351.838ZM830.73 341.838H840.73V351.838H830.73V341.838ZM830.73 354.258H840.73V364.258H830.73V354.258Z" fill="#D7E8F0"/>
<path d="M852.29 351.838V366.698H867.15V339.418H852.29V351.838ZM854.73 341.838H864.73V351.838H854.73V341.838ZM854.73 354.258H864.73V364.258H854.73V354.258Z" fill="#D7E8F0"/>
<path d="M578.94 155.61C578.94 155.61 581.77 194.11 624.42 190.55C624.42 190.55 609.48 228.86 598.76 235.64L544.9 269.73L532 209.42L578.94 155.61Z" fill="#2E2E2E"/>
<path d="M624.6 300.56L737.46 463.99L861.92 464.42V462.14C861.917 456.818 859.894 451.696 856.259 447.809C852.624 443.922 847.649 441.56 842.34 441.2L808 438.91L707.86 258.13C703.131 249.326 696.627 241.6 688.759 235.439C680.891 229.278 671.83 224.816 662.149 222.337C652.468 219.858 642.378 219.414 632.517 221.034C622.656 222.655 613.238 226.303 604.86 231.75L604 232.31L546.36 268.75L587.26 367.31L639.19 321.75" fill="white"/>
<path d="M242.91 395.751C253.3 424.671 272.31 429.361 294.54 427.871C306.17 412.631 319.95 391.871 331.09 376.361C344.037 358.261 357.003 340.187 369.99 322.141C373.3 317.501 376.61 312.891 379.99 308.251V377.781C379.978 381.37 380.215 384.955 380.7 388.511C444.04 442.641 534.51 374.721 546.85 364.911C547.78 364.201 548.24 363.801 548.24 363.801C554.15 320.971 547.77 288.581 546.41 264.091C544.55 231.371 538.49 220.971 533.11 210.911L530.88 205.271C526.7 197.481 526.88 195.541 526.32 195.171L526.49 193.741C526.49 193.741 524.32 191.301 524.32 191.241C512.1 171.071 502.69 154.241 482.46 142.111C489.46 147.271 494.3 159.771 486.88 166.601C478.25 174.551 466.5 165.151 459.42 159.601C450.372 152.77 442.431 144.583 435.88 135.331C433.81 132.331 431.21 129.141 431.61 125.331C416.95 125.121 404.55 130.331 389.43 139.071C370.31 150.141 355.07 166.841 344.67 186.361L242.91 395.751Z" fill="#2E2E2E"/>
<path d="M425.6 85.818V86.098C425.6 91.933 427.918 97.528 432.044 101.654C436.17 105.78 441.765 108.098 447.6 108.098C451.339 108.115 455.018 107.153 458.27 105.308C459.206 104.822 460.096 104.253 460.93 103.608C461.272 103.329 461.541 102.971 461.714 102.566C461.888 102.16 461.961 101.719 461.928 101.279C461.895 100.84 461.756 100.414 461.523 100.04C461.29 99.665 460.97 99.352 460.59 99.128C456.08 96.408 451.84 92.448 450.32 87.528C449.856 86.018 449.7 84.43 449.86 82.858C449.993 80.85 450.651 78.913 451.769 77.24C452.887 75.567 454.426 74.218 456.23 73.328C456.797 73.1131 457.388 72.968 457.99 72.898C459.69 72.618 461.99 72.648 462.51 73.898C459.828 67.938 459.185 61.26 460.68 54.898C461.611 50.95 463.431 47.267 466 44.128C465.963 45.26 466.176 46.385 466.624 47.425C467.072 48.465 467.744 49.3931 468.593 50.1431C469.441 50.8931 470.444 51.446 471.531 51.763C472.618 52.08 473.762 52.154 474.88 51.978C483.57 50.978 484.53 42.5181 484.53 42.5181C484.53 42.5181 484.59 42.608 484.59 42.668C489.17 51.828 500.27 51.178 507.85 46.318C510.535 44.649 512.833 42.4261 514.59 39.7981C516.05 29.8981 507.26 21.178 497.92 20.588C497.21 14.438 492.17 8.18804 486.05 8.18804C483.923 8.18204 481.833 8.74705 479.999 9.82305C478.164 10.899 476.652 12.448 475.62 14.308C475.459 14.599 475.315 14.9 475.19 15.208C472.41 11.808 468.01 8.20802 463.65 8.20802C460.595 8.21202 457.617 9.16803 455.13 10.942C452.642 12.716 450.769 15.221 449.77 18.108C449.77 17.668 445.77 16.248 445.38 16.108C443.756 15.636 442.071 15.407 440.38 15.428C437.432 15.505 434.551 16.321 432 17.801C429.449 19.281 427.311 21.377 425.78 23.898C425.626 24.776 425.553 25.666 425.56 26.558C425.558 29.223 426.185 31.851 427.39 34.228C426.018 34.738 424.755 35.505 423.67 36.488C421.338 38.526 419.901 41.399 419.67 44.488C419.67 44.798 419.67 45.108 419.67 45.418C419.665 47.752 420.362 50.034 421.67 51.968C420.232 52.512 418.87 53.242 417.62 54.138C413.895 56.823 411.379 60.869 410.62 65.398C410.452 66.389 410.369 67.393 410.37 68.398C410.371 72.653 411.914 76.763 414.715 79.967C417.516 83.17 421.383 85.249 425.6 85.818Z" fill="#3FBDF1"/>
<path d="M425.6 85.818V86.098C425.6 91.933 427.918 97.528 432.044 101.654C436.17 105.78 441.765 108.098 447.6 108.098C451.339 108.115 455.018 107.153 458.27 105.308C453.76 102.588 449.52 98.628 448 93.718C447.458 91.886 447.343 89.954 447.666 88.071C447.988 86.188 448.739 84.405 449.86 82.858C449.993 80.85 450.651 78.913 451.769 77.24C452.887 75.567 454.426 74.218 456.23 73.328C456.797 73.1131 457.388 72.968 457.99 72.898C456.905 66.765 457.849 60.446 460.68 54.898C461.611 50.95 463.431 47.267 466 44.128C465.963 45.26 466.176 46.385 466.624 47.425C467.072 48.465 467.744 49.3931 468.593 50.1431C469.441 50.8931 470.444 51.446 471.531 51.763C472.618 52.08 473.762 52.154 474.88 51.978C483.57 50.978 484.53 42.5181 484.53 42.5181C484.53 42.5181 484.59 42.608 484.59 42.668C489.17 51.828 500.27 51.178 507.85 46.318C510.535 44.649 512.833 42.4261 514.59 39.7981C516.05 29.8981 507.26 21.178 497.92 20.588C497.21 14.438 492.17 8.18804 486.05 8.18804C483.923 8.18204 481.833 8.74705 479.999 9.82305C478.164 10.899 476.652 12.448 475.62 14.308C475.459 14.599 475.315 14.9 475.19 15.208C472.41 11.808 468.01 8.20802 463.65 8.20802C460.595 8.21202 457.617 9.16803 455.13 10.942C452.642 12.716 450.769 15.221 449.77 18.108C449.77 17.668 445.77 16.248 445.38 16.108C443.756 15.636 442.071 15.407 440.38 15.428C437.432 15.505 434.551 16.321 432 17.801C429.449 19.281 427.311 21.377 425.78 23.898C425.626 24.776 425.553 25.666 425.56 26.558C425.558 29.223 426.185 31.851 427.39 34.228C426.018 34.738 424.755 35.505 423.67 36.488C423.965 37.853 424.436 39.174 425.07 40.418C422.92 41.233 421.042 42.637 419.65 44.468C419.65 44.778 419.65 45.088 419.65 45.398C419.645 47.732 420.342 50.014 421.65 51.948C420.212 52.492 418.85 53.222 417.6 54.118C417.937 55.543 418.523 56.897 419.33 58.118C415.671 59.472 412.577 62.024 410.55 65.358C410.382 66.349 410.299 67.353 410.3 68.358C410.293 72.6301 411.842 76.759 414.658 79.973C417.474 83.186 421.364 85.264 425.6 85.818Z" fill="#3FBDF1"/>
<path d="M482.4 668.699H624.6V665.949C624.604 660.512 622.499 655.285 618.728 651.369C614.957 647.452 609.813 645.151 604.38 644.949L570.82 643.559H491.58L482.4 668.699Z" fill="#3FBDF1"/>
<path d="M737.46 463.989L861.92 463.679V460.929C861.924 455.49 859.817 450.262 856.044 446.345C852.271 442.429 847.125 440.128 841.69 439.929L808.13 438.559L720.84 439.949L737.46 463.989Z" fill="#3FBDF1"/>
<path d="M531.48 463.28H465.48C444.688 463.223 424.625 455.614 409.024 441.869C393.423 428.124 383.346 409.179 380.67 388.56C380.186 385.001 379.948 381.412 379.96 377.82V308.27" stroke="black" stroke-width="4.01" stroke-miterlimit="10"/>
<path d="M507.51 363.559L546.2 364.889H546.85L571.28 365.379C576.662 365.487 582.021 366.12 587.28 367.269C630.89 376.699 658.76 420.399 649.45 463.639C648.078 470.082 645.929 476.334 643.05 482.259L570.82 643.559L604.38 644.919C609.813 645.121 614.956 647.422 618.727 651.339C622.499 655.255 624.604 660.482 624.6 665.919V668.669H482.4L491.58 643.559L557.66 463.029" stroke="black" stroke-width="4.01" stroke-miterlimit="10"/>
<path d="M624.6 300.598L737.46 463.988" stroke="black" stroke-width="4.01" stroke-miterlimit="10"/>
<path d="M587.3 367.31L639.23 321.75" stroke="black" stroke-width="4.01" stroke-miterlimit="10"/>
<path d="M477.97 463.221L478.31 462.911" stroke="black" stroke-width="4.01" stroke-miterlimit="10"/>
<path d="M604.04 232.31L637.75 163.25" stroke="black" stroke-width="4.01" stroke-miterlimit="10"/>
<path d="M194.3 463.028C194.3 463.088 194.24 463.118 194.21 463.188H222.75" stroke="black" stroke-width="4.01" stroke-miterlimit="10"/>
<path d="M523.81 463.341C523.81 463.191 523.9 463.031 523.93 462.911" stroke="black" stroke-width="4.01" stroke-miterlimit="10"/>
<path d="M431.6 126.24C421.004 125.957 410.485 128.12 400.86 132.56C378.415 143.01 359.732 160.119 347.35 181.56C333.71 205.35 322.67 231.02 310.55 255.56C295.363 286.4 280.157 317.226 264.93 348.04C257.597 362.913 250.263 377.79 242.93 392.67L227.37 424.18C224.172 429.444 219.666 433.792 214.29 436.8C208.918 439.796 202.871 441.372 196.72 441.38C190.558 441.379 184.524 443.14 179.329 446.454C174.134 449.769 169.995 454.5 167.4 460.09L166.04 463.03H203.57" stroke="black" stroke-width="4.01" stroke-miterlimit="10"/>
<path d="M546.19 364.91C550.6 336.63 549.67 308.16 547.44 279.72C543.44 228.89 527.98 177.96 486.53 145.08C485.46 144.23 484.38 143.39 483.26 142.61" stroke="black" stroke-width="4.01" stroke-miterlimit="10"/>
<path d="M443.61 193.739C444.39 223.679 418.84 254.019 418.84 254.019C418.84 254.019 418.78 254.079 418.78 254.109C405.82 272.109 392.88 290.162 379.96 308.269C376.62 312.909 373.31 317.519 369.96 322.149C356.967 340.215 344 358.289 331.06 376.369C320 391.929 309.57 408.259 297.94 423.559C294.94 427.479 291.88 431.319 288.66 435.059C284.55 439.859 280.31 445.329 275.3 449.199C270.29 453.069 264.48 456.679 259.3 460.759C254.96 464.401 251.244 468.728 248.3 473.569C245.08 479.069 244.74 485.289 241.99 490.789C237.17 500.509 225.26 498.899 221.18 489.619C215.52 476.749 227.89 448.919 227.89 448.919" stroke="black" stroke-width="4.01" stroke-miterlimit="10"/>
<path d="M-18 463L223 463" stroke="black" stroke-width="4.01" stroke-miterlimit="10"/>
<path d="M546.4 268.75L604 232.31L604.86 231.75C613.238 226.303 622.656 222.655 632.517 221.034C642.378 219.414 652.468 219.858 662.149 222.337C671.83 224.816 680.891 229.278 688.759 235.439C696.627 241.6 703.131 249.326 707.86 258.13L808 438.91L842.36 441.2C847.669 441.56 852.644 443.922 856.279 447.809C859.914 451.696 861.937 456.818 861.94 462.14V464.42" stroke="black" stroke-width="4.01" stroke-miterlimit="10"/>
<path d="M652.07 109C647.31 109.93 645.51 109.62 642.07 110.3C641.807 110.341 641.537 110.295 641.302 110.17C641.068 110.045 640.88 109.847 640.767 109.605C640.654 109.364 640.623 109.093 640.677 108.832C640.732 108.571 640.87 108.336 641.07 108.16L652.45 97.1601C655.567 94.5051 657.718 90.8951 658.57 86.8901L658.67 86.4901C658.278 85.1291 657.529 83.8991 656.5 82.9261C655.471 81.9541 654.2 81.2751 652.82 80.9601C650.401 80.5681 647.92 80.8881 645.68 81.8801C641.97 83.3401 636.99 84.6401 632.25 86.2701C625.694 88.5811 620.186 93.1691 616.73 99.2001L616.29 99.9801C602.666 123.655 587.078 146.144 569.69 167.21L532.69 212.68" stroke="black" stroke-width="4.01" stroke-miterlimit="10"/>
<path d="M646.16 167.911C648.281 167.911 650.346 167.231 652.052 165.971C653.758 164.711 655.016 162.938 655.64 160.911L665.16 131.561L673.56 103.831L684.51 68.1309C684.934 66.7459 685.022 65.2809 684.766 63.8559C684.509 62.4309 683.916 61.0869 683.036 59.9379C682.155 58.7889 681.013 57.8659 679.704 57.2469C678.395 56.6279 676.957 56.3309 675.51 56.3809C673.639 56.4349 671.83 57.0669 670.332 58.1899C668.833 59.3119 667.718 60.8699 667.14 62.6509L652.05 109.001L636.7 154.911C636.215 156.402 636.09 157.988 636.336 159.537C636.582 161.086 637.191 162.555 638.114 163.823C639.037 165.092 640.247 166.123 641.646 166.834C643.044 167.544 644.591 167.913 646.16 167.911Z" fill="#3FBDF1"/>
<path d="M646.16 167.911C648.281 167.911 650.346 167.231 652.052 165.971C653.758 164.711 655.016 162.938 655.64 160.911L665.16 131.561L673.56 103.831L684.51 68.1309C684.934 66.7459 685.022 65.2809 684.766 63.8559C684.509 62.4309 683.916 61.0869 683.036 59.9379C682.155 58.7889 681.013 57.8659 679.704 57.2469C678.395 56.6279 676.957 56.3309 675.51 56.3809C673.639 56.4349 671.83 57.0669 670.332 58.1899C668.833 59.3119 667.718 60.8699 667.14 62.6509L652.05 109.001L636.7 154.911C636.215 156.402 636.09 157.988 636.336 159.537C636.582 161.086 637.191 162.555 638.114 163.823C639.037 165.092 640.247 166.123 641.646 166.834C643.044 167.544 644.591 167.913 646.16 167.911Z" fill="#9FAEB4" stroke="black" stroke-width="4.01" stroke-miterlimit="10"/>
<path d="M685.07 122.98C687.449 122.884 689.753 122.121 691.72 120.78C692.794 119.982 693.697 118.977 694.375 117.825C695.054 116.672 695.494 115.395 695.67 114.069C695.847 112.743 695.755 111.395 695.401 110.106C695.047 108.816 694.438 107.61 693.61 106.56C692.121 104.724 690.114 103.379 687.85 102.7C684.953 101.749 681.821 101.791 678.95 102.82C675.894 104.144 673.392 106.487 671.87 109.45" stroke="black" stroke-width="4.01" stroke-miterlimit="10"/>
<path d="M679.16 142.057C681.55 142.036 683.885 141.343 685.9 140.057C686.993 139.287 687.921 138.304 688.628 137.169C689.334 136.033 689.806 134.767 690.015 133.446C690.224 132.125 690.166 130.775 689.843 129.477C689.521 128.178 688.942 126.958 688.14 125.887C686.692 124.013 684.712 122.619 682.46 121.887C679.594 120.865 676.468 120.83 673.58 121.787C670.71 122.787 667.88 124.567 666.49 127.217" stroke="black" stroke-width="4.01" stroke-miterlimit="10"/>
<path d="M661 144.459C662.717 142.182 665.156 140.557 667.917 139.848C670.679 139.14 673.599 139.39 676.2 140.559C678.181 141.411 679.863 142.835 681.03 144.649C681.672 145.68 682.102 146.83 682.293 148.03C682.483 149.231 682.432 150.457 682.141 151.637C681.85 152.817 681.326 153.927 680.599 154.901C679.873 155.875 678.958 156.694 677.91 157.309L676.55 158.039C676.55 158.039 668.39 161.319 654.78 162.889" stroke="black" stroke-width="4.01" stroke-miterlimit="10"/>
<path d="M570.16 463.371C566.39 463.371 527.61 463.371 523.81 463.371C508.59 463.311 493.28 463.281 477.97 463.251C402.17 463.061 326.09 462.941 256.97 462.911" stroke="black" stroke-width="4.01" stroke-miterlimit="10"/>
<path d="M222.85 462.879C199.77 462.879 186.94 462.879 166.09 462.879C132.09 462.939 101.45 463.029 75.47 463.159" stroke="black" stroke-width="4.01" stroke-miterlimit="10"/>
<path d="M965 464.83C963.18 464.83 823.38 464.21 649.47 463.68" stroke="black" stroke-width="4.01" stroke-miterlimit="10"/>
<path d="M431.6 125.34C431.2 129.18 433.8 132.4 435.87 135.34C442.421 144.593 450.361 152.779 459.41 159.61C466.49 165.12 478.24 174.52 486.87 166.61C494.29 159.78 489.5 147.28 482.45 142.12L482.36 142.06" stroke="black" stroke-width="4.01" stroke-miterlimit="10"/>
<path d="M500.89 59.6609C500.89 59.6609 488.35 60.8709 486.35 71.6609" stroke="black" stroke-width="4.01" stroke-miterlimit="10"/>
<path d="M506.73 91.1179C509.645 91.5849 512.622 91.4869 515.5 90.8279C516.043 90.6949 516.544 90.4309 516.962 90.0609C517.38 89.6899 517.702 89.2229 517.899 88.6999C518.096 88.1769 518.162 87.6139 518.093 87.0599C518.023 86.5049 517.82 85.9759 517.5 85.5179C514.5 81.3079 511.5 77.1479 508.19 73.1879C507.679 72.6889 507.331 72.0479 507.19 71.3479C507.19 71.3479 507.32 58.1579 503.85 48.3479" stroke="black" stroke-width="4.01" stroke-miterlimit="10"/>
<path d="M495.155 71.3599C494.715 69.2679 495.8 67.2689 497.578 66.8959C499.357 66.5219 501.154 67.9139 501.594 70.0059C502.034 72.0979 500.949 74.0959 499.171 74.4699C497.392 74.8439 495.594 73.4509 495.155 71.3599Z" fill="black"/>
<path d="M431.6 126.239C436.21 112.869 438.33 106.039 438.33 106.039" stroke="black" stroke-width="4.01" stroke-linecap="round" stroke-linejoin="round"/>
<path d="M482.35 121.77L482.42 167.91" stroke="black" stroke-width="4.01" stroke-miterlimit="10"/>
<path d="M511.33 91.4109C511.33 91.4109 508.11 117.951 495.23 122.981C482.35 128.011 469.56 112.491 469.56 112.491" stroke="black" stroke-width="4.01" stroke-linecap="round" stroke-linejoin="round"/>
<path d="M508.69 103.481C507.021 104.649 505.087 105.382 503.063 105.614C501.04 105.846 498.99 105.57 497.1 104.811" stroke="black" stroke-width="4.01" stroke-linecap="round" stroke-linejoin="round"/>
<path d="M476.39 13.9381C476.386 11.9001 476.917 9.89708 477.93 8.12808C479.243 5.85508 481.265 4.0751 483.686 3.0611C486.108 2.0471 488.795 1.85507 491.336 2.51407C493.877 3.17307 496.131 4.64809 497.754 6.71109C499.377 8.77509 500.278 11.3131 500.32 13.9381" stroke="black" stroke-width="4.01" stroke-miterlimit="10" stroke-linecap="round"/>
<path d="M483 31.5579C483.012 28.6709 483.729 25.8319 485.088 23.2849C486.447 20.7389 488.408 18.5639 490.8 16.9479C502.8 8.86793 520.09 21.2079 516.66 35.1179C515.46 39.9679 511.97 43.6979 507.86 46.3279C500.29 51.1879 489.18 51.8579 484.62 42.6879L484.55 42.5379C484.55 42.5379 483.55 50.9779 474.9 51.9979C473.782 52.1699 472.639 52.0939 471.553 51.7749C470.468 51.4569 469.465 50.9029 468.617 50.1539C467.769 49.4049 467.096 48.4789 466.645 47.4409C466.195 46.4029 465.978 45.2789 466.01 44.1479C459.14 52.4779 458.12 64.1479 462.5 73.8979C461.71 72.1379 457.39 72.8279 456.22 73.3479C451 75.6579 448.66 82.2279 450.3 87.5279C451.83 92.4679 456.07 96.3979 460.56 99.1479C460.94 99.3699 461.261 99.6809 461.495 100.055C461.729 100.428 461.869 100.852 461.903 101.291C461.938 101.73 461.865 102.171 461.692 102.577C461.519 102.982 461.251 103.339 460.91 103.618C457.649 106.096 453.76 107.614 449.683 108.002C445.605 108.39 441.5 107.632 437.83 105.813C434.161 103.994 431.071 101.187 428.91 97.7069C426.75 94.2269 425.603 90.2139 425.6 86.1179V85.8379C421.708 85.3509 418.091 83.5739 415.328 80.7909C412.564 78.0079 410.812 74.3789 410.351 70.4839C409.891 66.5889 410.748 62.6519 412.787 59.3009C414.826 55.9499 417.929 53.3789 421.6 51.9979C420.292 50.0639 419.595 47.7819 419.6 45.4479C419.6 42.2649 420.864 39.2129 423.115 36.9629C425.365 34.7119 428.417 33.4479 431.6 33.4479" stroke="black" stroke-width="4.01" stroke-linecap="round" stroke-linejoin="round"/>
<path d="M476.39 7.76999C473.7 4.05999 470.88 2 465.96 2C462.9 2.003 459.917 2.961 457.429 4.741C454.94 6.522 453.07 9.03499 452.08 11.93C452.21 11.53 448.08 10.05 447.67 9.92999C446.046 9.46099 444.361 9.232 442.67 9.25C438.136 9.376 433.824 11.245 430.633 14.47C427.443 17.694 425.618 22.025 425.54 26.56C425.542 29.225 426.169 31.852 427.37 34.23" stroke="black" stroke-width="4.01" stroke-linecap="square" stroke-linejoin="round"/>
<path d="M425.6 85.818V86.098C425.6 91.933 427.918 97.528 432.044 101.654C436.17 105.78 441.765 108.098 447.6 108.098C451.339 108.115 455.018 107.153 458.27 105.308C459.206 104.822 460.096 104.253 460.93 103.608C461.272 103.329 461.541 102.971 461.714 102.566C461.888 102.16 461.961 101.719 461.928 101.279C461.895 100.84 461.756 100.414 461.523 100.04C461.29 99.665 460.97 99.352 460.59 99.128C456.08 96.408 451.84 92.448 450.32 87.528C449.856 86.018 449.7 84.43 449.86 82.858C449.993 80.85 450.651 78.913 451.769 77.24C452.887 75.567 454.426 74.218 456.23 73.328C456.797 73.1131 457.388 72.968 457.99 72.898C459.69 72.618 461.99 72.648 462.51 73.898C459.828 67.938 459.185 61.26 460.68 54.898C461.611 50.95 463.431 47.267 466 44.128C465.963 45.26 466.176 46.385 466.624 47.425C467.072 48.465 467.744 49.3931 468.593 50.1431C469.441 50.8931 470.444 51.446 471.531 51.763C472.618 52.08 473.762 52.154 474.88 51.978C483.57 50.978 484.53 42.5181 484.53 42.5181C484.53 42.5181 484.59 42.608 484.59 42.668C489.17 51.828 500.27 51.178 507.85 46.318C510.535 44.649 512.833 42.4261 514.59 39.7981C516.05 29.8981 507.26 21.178 497.92 20.588C497.21 14.438 492.17 8.18804 486.05 8.18804C483.923 8.18204 481.833 8.74705 479.999 9.82305C478.164 10.899 476.652 12.448 475.62 14.308C475.459 14.599 475.315 14.9 475.19 15.208C472.41 11.808 468.01 8.20802 463.65 8.20802C460.595 8.21202 457.617 9.16803 455.13 10.942C452.642 12.716 450.769 15.221 449.77 18.108C449.77 17.668 445.77 16.248 445.38 16.108C443.756 15.636 442.071 15.407 440.38 15.428C437.432 15.505 434.551 16.321 432 17.801C429.449 19.281 427.311 21.377 425.78 23.898C425.626 24.776 425.553 25.666 425.56 26.558C425.558 29.223 426.185 31.851 427.39 34.228C426.018 34.738 424.755 35.505 423.67 36.488C421.338 38.526 419.901 41.399 419.67 44.488C419.67 44.798 419.67 45.108 419.67 45.418C419.665 47.752 420.362 50.034 421.67 51.968C420.232 52.512 418.87 53.242 417.62 54.138C413.895 56.823 411.379 60.869 410.62 65.398C410.452 66.389 410.369 67.393 410.37 68.398C410.371 72.653 411.914 76.763 414.715 79.967C417.516 83.17 421.383 85.249 425.6 85.818Z" fill="#3FBDF1"/>
<path d="M425.6 85.818V86.098C425.6 91.933 427.918 97.528 432.044 101.654C436.17 105.78 441.765 108.098 447.6 108.098C451.339 108.115 455.018 107.153 458.27 105.308C453.76 102.588 449.52 98.628 448 93.718C447.458 91.886 447.343 89.954 447.666 88.071C447.988 86.188 448.739 84.405 449.86 82.858C449.993 80.85 450.651 78.913 451.769 77.24C452.887 75.567 454.426 74.218 456.23 73.328C456.797 73.1131 457.388 72.968 457.99 72.898C456.905 66.765 457.849 60.446 460.68 54.898C461.611 50.95 463.431 47.267 466 44.128C465.963 45.26 466.176 46.385 466.624 47.425C467.072 48.465 467.744 49.3931 468.593 50.1431C469.441 50.8931 470.444 51.446 471.531 51.763C472.618 52.08 473.762 52.154 474.88 51.978C483.57 50.978 484.53 42.5181 484.53 42.5181C484.53 42.5181 484.59 42.608 484.59 42.668C489.17 51.828 500.27 51.178 507.85 46.318C510.535 44.649 512.833 42.4261 514.59 39.7981C516.05 29.8981 507.26 21.178 497.92 20.588C497.21 14.438 492.17 8.18804 486.05 8.18804C483.923 8.18204 481.833 8.74705 479.999 9.82305C478.164 10.899 476.652 12.448 475.62 14.308C475.459 14.599 475.315 14.9 475.19 15.208C472.41 11.808 468.01 8.20802 463.65 8.20802C460.595 8.21202 457.617 9.16803 455.13 10.942C452.642 12.716 450.769 15.221 449.77 18.108C449.77 17.668 445.77 16.248 445.38 16.108C443.756 15.636 442.071 15.407 440.38 15.428C437.432 15.505 434.551 16.321 432 17.801C429.449 19.281 427.311 21.377 425.78 23.898C425.626 24.776 425.553 25.666 425.56 26.558C425.558 29.223 426.185 31.851 427.39 34.228C426.018 34.738 424.755 35.505 423.67 36.488C423.965 37.853 424.436 39.174 425.07 40.418C422.92 41.233 421.042 42.637 419.65 44.468C419.65 44.778 419.65 45.088 419.65 45.398C419.645 47.732 420.342 50.014 421.65 51.948C420.212 52.492 418.85 53.222 417.6 54.118C417.937 55.543 418.523 56.897 419.33 58.118C415.671 59.472 412.577 62.024 410.55 65.358C410.382 66.349 410.299 67.353 410.3 68.358C410.293 72.6301 411.842 76.759 414.658 79.973C417.474 83.186 421.364 85.264 425.6 85.818Z" fill="#9FAEB4"/>
<path d="M500.89 59.6609C500.89 59.6609 488.35 60.8709 486.35 71.6609" stroke="black" stroke-width="4.01" stroke-miterlimit="10"/>
<path d="M506.73 91.1179C509.645 91.5849 512.622 91.4869 515.5 90.8279C516.043 90.6949 516.544 90.4309 516.962 90.0609C517.38 89.6899 517.702 89.2229 517.899 88.6999C518.096 88.1769 518.162 87.6139 518.093 87.0599C518.023 86.5049 517.82 85.9759 517.5 85.5179C514.5 81.3079 511.5 77.1479 508.19 73.1879C507.679 72.6889 507.331 72.0479 507.19 71.3479C507.19 71.3479 507.32 58.1579 503.85 48.3479" stroke="black" stroke-width="4.01" stroke-miterlimit="10"/>
<path d="M495.155 71.3599C494.715 69.2679 495.8 67.2689 497.578 66.8959C499.357 66.5219 501.154 67.9139 501.594 70.0059C502.034 72.0979 500.949 74.0959 499.171 74.4699C497.392 74.8439 495.594 73.4509 495.155 71.3599Z" fill="black"/>
<path d="M431.6 126.239C436.21 112.869 438.33 106.039 438.33 106.039" stroke="black" stroke-width="4.01" stroke-linecap="round" stroke-linejoin="round"/>
<path d="M482.35 121.77L482.42 167.91" stroke="black" stroke-width="4.01" stroke-miterlimit="10"/>
<path d="M511.33 91.4109C511.33 91.4109 508.11 117.951 495.23 122.981C482.35 128.011 469.56 112.491 469.56 112.491" stroke="black" stroke-width="4.01" stroke-linecap="round" stroke-linejoin="round"/>
<path d="M508.69 103.481C507.021 104.649 505.087 105.382 503.063 105.614C501.04 105.846 498.99 105.57 497.1 104.811" stroke="black" stroke-width="4.01" stroke-linecap="round" stroke-linejoin="round"/>
<path d="M476.39 13.9381C476.386 11.9001 476.917 9.89708 477.93 8.12808C479.243 5.85508 481.265 4.0751 483.686 3.0611C486.108 2.0471 488.795 1.85507 491.336 2.51407C493.877 3.17307 496.131 4.64809 497.754 6.71109C499.377 8.77509 500.278 11.3131 500.32 13.9381" stroke="black" stroke-width="4.01" stroke-miterlimit="10" stroke-linecap="round"/>
<path d="M483 31.5579C483.012 28.6709 483.729 25.8319 485.088 23.2849C486.447 20.7389 488.408 18.5639 490.8 16.9479C502.8 8.86793 520.09 21.2079 516.66 35.1179C515.46 39.9679 511.97 43.6979 507.86 46.3279C500.29 51.1879 489.18 51.8579 484.62 42.6879L484.55 42.5379C484.55 42.5379 483.55 50.9779 474.9 51.9979C473.782 52.1699 472.639 52.0939 471.553 51.7749C470.468 51.4569 469.465 50.9029 468.617 50.1539C467.769 49.4049 467.096 48.4789 466.645 47.4409C466.195 46.4029 465.978 45.2789 466.01 44.1479C459.14 52.4779 458.12 64.1479 462.5 73.8979C461.71 72.1379 457.39 72.8279 456.22 73.3479C451 75.6579 448.66 82.2279 450.3 87.5279C451.83 92.4679 456.07 96.3979 460.56 99.1479C460.94 99.3699 461.261 99.6809 461.495 100.055C461.729 100.428 461.869 100.852 461.903 101.291C461.938 101.73 461.865 102.171 461.692 102.577C461.519 102.982 461.251 103.339 460.91 103.618C457.649 106.096 453.76 107.614 449.683 108.002C445.605 108.39 441.5 107.632 437.83 105.813C434.161 103.994 431.071 101.187 428.91 97.7069C426.75 94.2269 425.603 90.2139 425.6 86.1179V85.8379C421.708 85.3509 418.091 83.5739 415.328 80.7909C412.564 78.0079 410.812 74.3789 410.351 70.4839C409.891 66.5889 410.748 62.6519 412.787 59.3009C414.826 55.9499 417.929 53.3789 421.6 51.9979C420.292 50.0639 419.595 47.7819 419.6 45.4479C419.6 42.2649 420.864 39.2129 423.115 36.9629C425.365 34.7119 428.417 33.4479 431.6 33.4479" fill="#9FAEB4"/>
<path d="M483 31.5579C483.012 28.6709 483.729 25.8319 485.088 23.2849C486.447 20.7389 488.408 18.5639 490.8 16.9479C502.8 8.86793 520.09 21.2079 516.66 35.1179C515.46 39.9679 511.97 43.6979 507.86 46.3279C500.29 51.1879 489.18 51.8579 484.62 42.6879L484.55 42.5379C484.55 42.5379 483.55 50.9779 474.9 51.9979C473.782 52.1699 472.639 52.0939 471.553 51.7749C470.468 51.4569 469.465 50.9029 468.617 50.1539C467.769 49.4049 467.096 48.4789 466.645 47.4409C466.195 46.4029 465.978 45.2789 466.01 44.1479C459.14 52.4779 458.12 64.1479 462.5 73.8979C461.71 72.1379 457.39 72.8279 456.22 73.3479C451 75.6579 448.66 82.2279 450.3 87.5279C451.83 92.4679 456.07 96.3979 460.56 99.1479C460.94 99.3699 461.261 99.6809 461.495 100.055C461.729 100.428 461.869 100.852 461.903 101.291C461.938 101.73 461.865 102.171 461.692 102.577C461.519 102.982 461.251 103.339 460.91 103.618C457.649 106.096 453.76 107.614 449.683 108.002C445.605 108.39 441.5 107.632 437.83 105.813C434.161 103.994 431.071 101.187 428.91 97.7069C426.75 94.2269 425.603 90.2139 425.6 86.1179V85.8379C421.708 85.3509 418.091 83.5739 415.328 80.7909C412.564 78.0079 410.812 74.3789 410.351 70.4839C409.891 66.5889 410.748 62.6519 412.787 59.3009C414.826 55.9499 417.929 53.3789 421.6 51.9979C420.292 50.0639 419.595 47.7819 419.6 45.4479C419.6 42.2649 420.864 39.2129 423.115 36.9629C425.365 34.7119 428.417 33.4479 431.6 33.4479" stroke="black" stroke-width="4.01" stroke-linecap="round" stroke-linejoin="round"/>
<path d="M476.39 7.76999C473.7 4.05999 470.88 2 465.96 2C462.9 2.003 459.917 2.961 457.429 4.741C454.94 6.522 453.07 9.03499 452.08 11.93C452.21 11.53 448.08 10.05 447.67 9.92999C446.046 9.46099 444.361 9.232 442.67 9.25C438.136 9.376 433.824 11.245 430.633 14.47C427.443 17.694 425.618 22.025 425.54 26.56C425.542 29.225 426.169 31.852 427.37 34.23" stroke="black" stroke-width="4.01" stroke-linecap="square" stroke-linejoin="round"/>
</g>
</svg>
