<svg width="180" height="180" viewBox="0 0 180 180" fill="none" xmlns="http://www.w3.org/2000/svg">
<rect width="180" height="180" rx="90" fill="#1A1A1A"/>
<path d="M79.709 103.5C79.1779 103.5 78.7986 103.12 78.7986 102.589C78.7986 102.058 79.1779 101.679 79.709 101.679C80.2401 101.679 80.6195 102.058 80.6195 102.589C80.6195 103.044 80.2401 103.5 79.709 103.5Z" fill="url(#paint0_linear_494_6246)"/>
<path d="M71.668 102.437C71.1369 102.437 70.7576 102.058 70.7576 101.527C70.7576 100.996 71.1369 100.616 71.668 100.616C72.1991 100.616 72.5785 100.996 72.5785 101.527C72.6544 101.982 72.1991 102.437 71.668 102.437Z" fill="url(#paint1_linear_494_6246)"/>
<path d="M101.103 103.5C101.634 103.5 102.014 103.12 102.014 102.589C102.014 102.058 101.634 101.679 101.103 101.679C100.572 101.679 100.193 102.058 100.193 102.589C100.193 103.044 100.648 103.5 101.103 103.5Z" fill="url(#paint2_linear_494_6246)"/>
<path d="M109.15 102.437C109.681 102.437 110.06 102.058 110.06 101.527C110.06 100.996 109.681 100.616 109.15 100.616C108.619 100.616 108.239 100.996 108.239 101.527C108.239 101.982 108.694 102.437 109.15 102.437Z" fill="url(#paint3_linear_494_6246)"/>
<path d="M90.3347 114.88C88.8173 114.88 87.4516 114.046 86.4652 112.604C80.5472 112.301 74.6292 111.314 68.863 109.721C68.4836 109.645 68.1043 109.493 67.8008 109.266L68.5595 112.376C69.0906 113.59 70.0769 114.425 71.2909 114.804C75.9949 116.094 82.2164 117.384 89.576 117.46C97.6943 117.536 104.523 116.246 109.53 114.804C110.744 114.425 111.806 113.515 112.262 112.376L113.02 109.342C112.717 109.493 112.338 109.645 111.958 109.797C106.116 111.466 100.198 112.376 94.2042 112.68C93.142 113.97 91.7763 114.88 90.3347 114.88Z" fill="url(#paint4_linear_494_6246)"/>
<path d="M113.399 95.8373C113.019 95.8373 112.564 95.8373 112.109 95.7615C110.44 95.5338 107.481 94.3199 105.811 89.7676C104.37 93.3336 101.411 95.6097 97.9967 95.6097C94.6583 95.6097 91.7752 93.4853 90.3337 90.1469C88.8921 93.4853 85.9331 95.6097 82.6706 95.6097C79.2564 95.6097 76.2215 93.3336 74.8558 89.7676C74.0971 91.892 72.2762 95.9132 67.7239 95.9132C67.5721 95.9132 67.3445 95.9132 67.1169 95.9132C66.1305 95.8373 65.2201 95.6097 64.3855 95.2303L67.041 105.777C67.4962 106.763 68.3308 107.446 69.393 107.749C74.6282 109.191 80.0151 110.177 85.4778 110.481C84.9467 109.191 84.6433 107.749 84.6433 106.156C84.6433 101.452 87.2229 97.7341 90.4095 97.7341C93.5961 97.7341 96.1758 101.528 96.1758 106.156C96.1758 107.749 95.8723 109.267 95.3412 110.556C100.804 110.177 106.267 109.267 111.578 107.825C112.64 107.522 113.475 106.839 113.93 105.852L116.585 95.3062C115.599 95.6097 114.537 95.8373 113.399 95.8373ZM71.6692 104.183C70.1517 104.183 68.9378 102.969 68.9378 101.452C68.9378 99.9344 70.1517 98.7204 71.6692 98.7204C73.1866 98.7204 74.4006 99.9344 74.4006 101.452C74.4006 102.969 73.1866 104.183 71.6692 104.183ZM79.7116 105.321C78.1942 105.321 76.9802 104.107 76.9802 102.59C76.9802 101.072 78.1942 99.8585 79.7116 99.8585C81.229 99.8585 82.443 101.072 82.443 102.59C82.443 104.107 81.229 105.321 79.7116 105.321ZM101.107 105.321C99.59 105.321 98.3761 104.107 98.3761 102.59C98.3761 101.072 99.59 99.8585 101.107 99.8585C102.625 99.8585 103.839 101.072 103.839 102.59C103.839 104.107 102.625 105.321 101.107 105.321ZM109.15 104.183C107.632 104.183 106.418 102.969 106.418 101.452C106.418 99.9344 107.632 98.7204 109.15 98.7204C110.667 98.7204 111.881 99.9344 111.881 101.452C111.881 102.969 110.667 104.183 109.15 104.183Z" fill="url(#paint5_linear_494_6246)"/>
<path d="M90.3316 111.239C88.9659 111.239 87.4485 109.114 87.4485 106.079C87.4485 103.045 88.9659 100.92 90.3316 100.92C91.6973 100.92 93.2147 103.045 93.2147 106.079C93.2147 109.114 91.6973 111.239 90.3316 111.239Z" fill="url(#paint6_linear_494_6246)"/>
<path d="M121.591 78.9171L120.756 78.6895L125.309 63.0599C125.309 63.0599 125.309 62.984 125.233 62.984C123.184 63.7428 121.591 65.3361 120.908 67.5363C120.832 67.8398 120.756 68.1433 120.681 68.4468C120.377 68.2951 120.074 68.1433 119.694 67.9916C115.445 66.8535 112.942 71.9369 115.673 74.9718C116.28 75.6546 116.963 76.2616 117.722 76.7168C117.342 75.0476 116.356 73.075 117.418 71.6334C118.101 70.7988 119.087 71.0264 119.694 71.9369C120.377 72.9232 119.77 75.8064 119.087 78.0825L118.025 77.779C117.342 77.5514 116.659 78.0067 116.432 78.6895C116.204 79.3723 116.659 80.0552 117.342 80.2828L118.253 80.5863L116.508 86.0491C115.749 88.3252 114.611 90.2979 113.245 90.2979C111.424 90.222 110.59 88.4011 109.831 86.0491L106.568 75.5029C107.782 75.2753 108.693 74.1372 108.693 72.8474C108.693 71.7852 108.086 70.8747 107.251 70.4195C107.707 70.0401 108.01 69.509 108.01 68.902C108.01 67.764 107.1 66.9294 106.037 66.9294C104.899 66.9294 104.065 67.8398 104.065 68.902C104.065 69.509 104.368 70.116 104.823 70.4195C103.989 70.8747 103.382 71.7852 103.382 72.8474C103.382 74.0613 104.141 75.0477 105.203 75.427L101.864 86.0491C100.043 91.8912 96.0223 91.8912 94.2013 86.0491L91.5458 77.6273H91.9252C92.608 77.6273 93.215 77.0203 93.215 76.3375C93.215 75.6546 92.608 75.0477 91.9252 75.0477H91.6976C91.6976 72.8474 91.8493 70.723 92.7598 70.0401C93.5944 69.3573 94.7324 69.4331 95.1877 70.4195C95.8705 71.9369 94.5048 73.1509 93.2909 73.4543C93.5944 74.3648 95.0359 74.5165 96.0223 73.9854C99.5124 71.861 98.2984 66.2465 93.8979 66.1706C93.5185 66.1706 93.1391 66.2465 92.8357 66.3224C92.9115 66.0189 92.9115 65.7154 92.9115 65.3361C92.9115 63.2117 91.9252 61.239 90.4077 59.9492C90.3319 59.9492 90.3319 59.8733 90.256 59.8733C90.1801 59.8733 90.1801 59.9492 90.1043 59.9492C88.5868 61.239 87.6005 63.1358 87.6005 65.3361C87.6005 65.6395 87.6005 65.943 87.6764 66.3224C87.297 66.2465 86.9935 66.1706 86.6142 66.1706C82.2136 66.3224 80.9997 71.861 84.4898 73.9854C85.4761 74.5165 86.9176 74.3648 87.2211 73.4543C86.0072 73.075 84.6415 71.861 85.3243 70.4195C85.7796 69.4331 86.9176 69.3573 87.7522 70.0401C88.5868 70.723 88.8144 72.8474 88.8144 75.0477H88.5868C87.904 75.0477 87.297 75.6546 87.297 76.3375C87.297 77.0203 87.904 77.6273 88.5868 77.6273H89.0421L86.3865 86.0491C84.5656 91.8912 80.5444 91.8912 78.7235 86.0491L75.3851 75.427C76.5232 75.1235 77.3578 74.0613 77.3578 72.8474C77.3578 71.7852 76.7508 70.8747 75.9162 70.4195C76.3715 70.0401 76.675 69.509 76.675 68.902C76.675 67.764 75.7645 66.9294 74.7023 66.9294C73.5642 66.9294 72.7296 67.8398 72.7296 68.902C72.7296 69.509 73.0331 70.116 73.4883 70.4195C72.6538 70.8747 72.0468 71.7852 72.0468 72.8474C72.0468 74.1372 72.8814 75.1994 74.0953 75.5029L70.757 86.1249C69.9982 88.477 69.2395 90.3738 67.4186 90.3738C66.0529 90.4496 64.839 88.4011 64.1561 86.1249L62.3352 80.6622L63.3215 80.3587C64.0044 80.1311 64.3837 79.4482 64.232 78.7654C64.0802 78.0825 63.3215 77.7032 62.6387 77.8549L61.5765 78.1584C60.8936 75.8822 60.2867 72.9232 60.9695 72.0128C61.5765 71.1782 62.5628 70.8747 63.2457 71.7093C64.3079 73.1509 63.3215 75.1235 62.9422 76.7927C63.7009 76.3375 64.3837 75.8064 64.9907 75.0477C67.7221 72.0128 65.2183 66.8535 60.9695 68.0674C60.5901 68.1433 60.2867 68.3709 59.9832 68.5227C59.9073 68.2192 59.9073 67.9157 59.7555 67.6122C59.0727 65.4119 57.4035 63.7428 55.4309 63.0599C55.4309 63.0599 55.4309 63.1358 55.355 63.1358L59.9073 78.7654L59.0727 78.993C58.3899 79.2206 58.0105 79.9034 58.1622 80.5863C58.3899 81.2691 59.0727 81.6485 59.7555 81.4968L60.5143 81.2691L63.2457 89.7668C63.5491 91.2083 64.9907 92.7258 67.3427 92.8775C69.4671 93.0293 71.0604 91.8912 72.1985 88.0976L74.7782 79.8276L77.3578 88.0976C78.2683 90.9049 80.2409 92.6499 82.593 92.6499C84.945 92.6499 86.9935 90.9049 87.8281 88.0976L90.256 80.3587L92.6839 88.0976C93.5944 90.9049 95.567 92.6499 97.9191 92.6499C100.271 92.6499 102.32 90.9049 103.154 88.0976L105.734 79.8276L108.313 88.0976C109.3 91.2842 110.969 92.574 112.486 92.8017C115.218 93.2569 116.963 91.3601 117.266 89.7668L119.998 81.1933L120.756 81.4209C121.439 81.6485 122.122 81.1933 122.35 80.5104C122.653 79.9034 122.274 79.1447 121.591 78.9171Z" fill="url(#paint7_linear_494_6246)"/>
<path d="M90.1048 157.368L89.422 157.216C56.7213 148.188 33.9597 118.294 33.9597 84.3796V46.2161H36.5394C49.9687 46.2161 62.8669 42.119 73.7924 34.3042L90.1048 22.6958L106.493 34.3042C117.343 42.119 130.241 46.2161 143.67 46.2161H146.25V84.3037C146.25 118.218 123.413 148.112 90.7877 157.141L90.1048 157.368ZM39.0431 51.2995V84.3796C39.0431 115.715 59.9837 143.484 90.1048 152.057C120.226 143.484 141.167 115.715 141.167 84.3796V51.2995C127.586 50.8442 114.611 46.3678 103.534 38.4771L90.1048 28.9932L76.7514 38.553C65.5983 46.4437 52.6242 50.8442 39.0431 51.2995Z" fill="url(#paint8_linear_494_6246)"/>
<path d="M90.0316 146.444C63.1729 138.022 44.4326 112.529 44.4326 84.3047V56.2321H44.7361C57.3308 54.8664 69.4703 50.2382 79.8647 42.8028L90.1833 35.4432L100.502 42.8028C110.896 50.2382 123.036 54.8664 135.631 56.2321H135.934V84.3047C135.934 112.453 117.194 138.022 90.335 146.444H90.2592H90.0316ZM90.1074 36.4296C89.9557 36.4296 89.8039 36.5054 89.7281 36.5813L80.2441 43.3339C70.0014 50.6176 58.0895 55.2458 45.7224 56.7632C45.3431 56.8391 45.1155 57.1426 45.1155 57.4461V84.3047C45.1155 112.074 63.5523 137.263 89.9557 145.685C90.0316 145.685 90.1074 145.685 90.1833 145.685C90.2592 145.685 90.335 145.685 90.4109 145.685C116.814 137.263 135.251 111.998 135.251 84.3047V57.4461C135.251 57.0667 135.024 56.7632 134.644 56.7632C122.277 55.2458 110.289 50.6176 100.123 43.3339L90.6385 36.5813C90.4109 36.5054 90.2592 36.4296 90.1074 36.4296Z" fill="url(#paint9_linear_494_6246)"/>
<defs>
<linearGradient id="paint0_linear_494_6246" x1="79.0757" y1="65.6864" x2="80.1089" y2="124.319" gradientUnits="userSpaceOnUse">
<stop offset="0.00446955" stop-color="#EAD09A"/>
<stop offset="0.1698" stop-color="#DFB968"/>
<stop offset="0.4201" stop-color="#DFB968"/>
<stop offset="0.9838" stop-color="#965D24"/>
</linearGradient>
<linearGradient id="paint1_linear_494_6246" x1="71.074" y1="65.827" x2="72.1073" y2="124.459" gradientUnits="userSpaceOnUse">
<stop offset="0.00446955" stop-color="#EAD09A"/>
<stop offset="0.1698" stop-color="#DFB968"/>
<stop offset="0.4201" stop-color="#DFB968"/>
<stop offset="0.9838" stop-color="#965D24"/>
</linearGradient>
<linearGradient id="paint2_linear_494_6246" x1="100.483" y1="65.3091" x2="101.516" y2="123.941" gradientUnits="userSpaceOnUse">
<stop offset="0.00446955" stop-color="#EAD09A"/>
<stop offset="0.1698" stop-color="#DFB968"/>
<stop offset="0.4201" stop-color="#DFB968"/>
<stop offset="0.9838" stop-color="#965D24"/>
</linearGradient>
<linearGradient id="paint3_linear_494_6246" x1="108.528" y1="65.1671" x2="109.561" y2="123.799" gradientUnits="userSpaceOnUse">
<stop offset="0.00446955" stop-color="#EAD09A"/>
<stop offset="0.1698" stop-color="#DFB968"/>
<stop offset="0.4201" stop-color="#DFB968"/>
<stop offset="0.9838" stop-color="#965D24"/>
</linearGradient>
<linearGradient id="paint4_linear_494_6246" x1="89.6319" y1="65.5011" x2="90.665" y2="124.132" gradientUnits="userSpaceOnUse">
<stop offset="0.00446955" stop-color="#EAD09A"/>
<stop offset="0.1698" stop-color="#DFB968"/>
<stop offset="0.4201" stop-color="#DFB968"/>
<stop offset="0.9838" stop-color="#965D24"/>
</linearGradient>
<linearGradient id="paint5_linear_494_6246" x1="89.8763" y1="65.4974" x2="90.9094" y2="124.129" gradientUnits="userSpaceOnUse">
<stop offset="0.00446955" stop-color="#EAD09A"/>
<stop offset="0.1698" stop-color="#DFB968"/>
<stop offset="0.4201" stop-color="#DFB968"/>
<stop offset="0.9838" stop-color="#965D24"/>
</linearGradient>
<linearGradient id="paint6_linear_494_6246" x1="89.5913" y1="65.5018" x2="90.6244" y2="124.133" gradientUnits="userSpaceOnUse">
<stop offset="0.00446955" stop-color="#EAD09A"/>
<stop offset="0.1698" stop-color="#DFB968"/>
<stop offset="0.4201" stop-color="#DFB968"/>
<stop offset="0.9838" stop-color="#965D24"/>
</linearGradient>
<linearGradient id="paint7_linear_494_6246" x1="90.3519" y1="65.4882" x2="91.3851" y2="124.119" gradientUnits="userSpaceOnUse">
<stop offset="0.00446955" stop-color="#EAD09A"/>
<stop offset="0.1698" stop-color="#DFB968"/>
<stop offset="0.4201" stop-color="#DFB968"/>
<stop offset="0.9838" stop-color="#965D24"/>
</linearGradient>
<linearGradient id="paint8_linear_494_6246" x1="89.5454" y1="16.7732" x2="91.0953" y2="155.861" gradientUnits="userSpaceOnUse">
<stop offset="0.00446955" stop-color="#EAD09A"/>
<stop offset="0.1698" stop-color="#DFB968"/>
<stop offset="0.4201" stop-color="#DFB968"/>
<stop offset="0.9838" stop-color="#965D24"/>
</linearGradient>
<linearGradient id="paint9_linear_494_6246" x1="89.4924" y1="16.7746" x2="91.0422" y2="155.862" gradientUnits="userSpaceOnUse">
<stop offset="0.00446955" stop-color="#EAD09A"/>
<stop offset="0.1698" stop-color="#DFB968"/>
<stop offset="0.4201" stop-color="#DFB968"/>
<stop offset="0.9838" stop-color="#965D24"/>
</linearGradient>
</defs>
</svg>
