<svg width="895" height="874" viewBox="0 0 895 874" fill="none" xmlns="http://www.w3.org/2000/svg">
<g opacity="0.03">
<path d="M232.321 334.725C232.321 334.725 246.858 371.393 294.951 373.19" stroke="#CCDDE2" stroke-width="5.32" stroke-miterlimit="10"/>
<path d="M351.419 366.779C351.419 366.779 379.07 359.531 397.231 331.771" stroke="#CCDDE2" stroke-width="5.32" stroke-miterlimit="10"/>
<path d="M759.74 869.951C762.505 868.233 779.816 869.951 783.075 869.951C790.167 869.983 797.243 869.305 804.199 867.927C891.379 850.447 899.122 722.758 888.091 637.009C885.737 619.028 881.703 601.306 876.043 584.077C859.719 533.633 830.468 486.902 794.738 448.546C781.456 434.296 765.418 421.744 756.708 403.879C740.769 371.162 753.242 333.221 760.658 300.019C770.533 255.461 774.671 206.943 726.015 184.773C623.804 138.18 510.73 221.796 510.73 221.796" stroke="#CCDDE2" stroke-width="5.32" stroke-miterlimit="10"/>
<path d="M75.9927 712.519C70.2452 740.931 69.9489 770.666 79.7256 797.823C88.4555 822.067 105.698 846.974 128.244 860.82C141.167 868.674 156.389 871.869 171.38 869.874" stroke="#CCDDE2" stroke-width="5.32" stroke-miterlimit="10"/>
<path d="M294.932 439.264V344.193V341.388V318.724V310.281V264.32" stroke="#CCDDE2" stroke-width="5.32" stroke-miterlimit="10"/>
<path d="M357.631 422.13V375.409C357.634 373.5 357.034 371.639 355.919 370.09C354.804 368.541 353.23 367.382 351.419 366.778L324.321 357.742V264.32" stroke="#CCDDE2" stroke-width="5.32" stroke-miterlimit="10"/>
<path d="M294.932 344.196C302.704 346.398 316.144 349.341 324.301 347.623" stroke="#CCDDE2" stroke-width="5.32" stroke-miterlimit="10"/>
<path d="M294.932 318.755C304.6 319.525 316.658 320.364 324.321 322.359" stroke="#CCDDE2" stroke-width="5.32" stroke-miterlimit="10"/>
<path d="M294.932 341.388C303.622 340.164 316.302 337.497 324.321 334.031" stroke="#CCDDE2" stroke-width="5.32" stroke-miterlimit="10"/>
<path d="M294.932 310.284C311.848 305.593 320.223 299.806 324.321 294.977" stroke="#CCDDE2" stroke-width="5.32" stroke-miterlimit="10"/>
<path d="M148.222 286.984L111.515 289.966" stroke="#CCDDE2" stroke-width="5.32" stroke-miterlimit="10"/>
<path d="M143.6 270.801L107.239 273.744" stroke="#CCDDE2" stroke-width="5.32" stroke-miterlimit="10"/>
<path d="M542.875 238.439L701.978 225.512C704.16 225.338 706.321 226.036 707.988 227.454C709.654 228.873 710.69 230.895 710.866 233.076C710.866 233.284 710.866 233.501 710.866 233.748C710.87 235.824 710.09 237.825 708.682 239.35C707.273 240.875 705.342 241.813 703.272 241.974L549.462 254.447" stroke="#CCDDE2" stroke-width="5.32" stroke-miterlimit="10"/>
<path d="M299.277 274.759L264.871 277.524" stroke="#CCDDE2" stroke-width="5.32" stroke-miterlimit="10"/>
<path d="M389.894 267.402L321.516 272.943" stroke="#CCDDE2" stroke-width="5.32" stroke-miterlimit="10"/>
<path d="M296.156 258.438L271.112 260.472" stroke="#CCDDE2" stroke-width="5.32" stroke-miterlimit="10"/>
<path d="M382.645 251.432L321.941 256.33" stroke="#CCDDE2" stroke-width="5.32" stroke-miterlimit="10"/>
<path d="M220.076 730.029C220.737 729.654 221.389 729.269 222.051 728.874C228.075 725.23 228.865 719.917 223.868 715.236C202.537 695.267 177.769 678.183 150.612 667.221C126.851 657.622 98.805 651.618 73.1683 654.808C61.3178 656.289 31.6322 662.145 39.3054 680.563C40.9546 684.513 44.0752 687.653 47.2058 690.577C88.5938 729.071 165.632 761.107 220.076 730.029Z" stroke="#CCDDE2" stroke-width="5.32" stroke-miterlimit="10"/>
<path d="M42.1199 685.836C2.8551 639.037 51.0078 509.816 71.5784 455.096C80.4071 431.553 80.8613 406.015 79.3899 381.149C78.9356 372.32 67.9739 317.462 83.7746 319.003C86.2632 319.25 88.2185 321.037 89.8677 322.953C94.4648 328.259 97.2832 334.874 97.9261 341.864C100.786 339.013 104.055 336.604 107.624 334.715C109.624 333.639 111.711 332.738 113.865 332.019C115.542 331.3 117.369 331.001 119.188 331.15C124.896 332.137 126.614 339.662 125.419 345.37C123.395 355.7 114.951 359.7 109.48 367.718C108.775 368.764 108.155 369.863 107.624 371.007C103.496 379.559 103.98 389.997 104.661 399.389C105.652 411.389 108.733 423.124 113.766 434.062" stroke="#CCDDE2" stroke-width="5.32" stroke-miterlimit="10"/>
<path d="M210.891 610.004C220.945 642.336 226.801 675.923 227.146 709.943C227.216 713.479 227.146 716.985 227.048 720.52V720.935C227.062 721.595 227.035 722.253 226.969 722.91" stroke="#CCDDE2" stroke-width="5.32" stroke-miterlimit="10"/>
<path d="M107.624 371.004C107.624 371.004 81.3847 364.536 76.0223 352.902" stroke="#CCDDE2" stroke-width="5.32" stroke-miterlimit="10"/>
<path d="M107.624 334.724C107.624 334.724 125.321 259.67 88.6827 264.608C52.0447 269.546 75.9927 321.718 75.9927 321.718" stroke="#CCDDE2" stroke-width="5.32" stroke-miterlimit="10"/>
<path d="M89.8085 295.477C97.4382 295.477 103.624 289.292 103.624 281.662C103.624 274.032 97.4382 267.846 89.8085 267.846C82.1787 267.846 75.9927 274.032 75.9927 281.662C75.9927 289.292 82.1787 295.477 89.8085 295.477Z" stroke="#CCDDE2" stroke-width="5.32" stroke-miterlimit="10"/>
<path d="M642.567 492.888C645.918 495.918 650.276 497.592 654.793 497.588C663.967 497.588 671.433 490.932 671.433 482.775C671.433 463.511 671.411 444.254 671.364 425.004C671.364 413.558 673.813 391.803 654.793 391.803C641.758 391.803 638.114 402.063 638.153 411.8V422.417" stroke="#CCDDE2" stroke-width="5.32" stroke-miterlimit="10"/>
<path d="M642.567 370.886C644.159 372.521 646.06 373.822 648.158 374.718C650.256 375.613 652.512 376.083 654.793 376.101C656.974 376.103 659.132 375.674 661.147 374.84C663.163 374.006 664.993 372.783 666.534 371.242C668.077 369.7 669.299 367.869 670.133 365.855C670.966 363.84 671.395 361.681 671.394 359.5C671.394 337.991 671.371 316.483 671.325 294.974C671.325 282.225 673.813 257.882 654.793 257.882C641.758 257.882 638.113 269.367 638.113 280.23V289.118" stroke="#CCDDE2" stroke-width="5.32" stroke-miterlimit="10"/>
<path d="M651.87 391.756H657.736V373.19H651.87V391.756Z" fill="#D7E8F0"/>
<path d="M625.977 522.91C635.151 522.91 642.587 516.254 642.587 508.048C642.587 488.79 642.564 469.537 642.518 450.286C642.518 438.85 644.987 417.085 625.977 417.085C612.951 417.085 609.297 427.365 609.307 437.083C609.346 459.151 609.366 481.23 609.366 503.317C609.366 506.813 609.366 510.378 610.65 513.686C612.783 519.306 619.439 522.91 625.977 522.91Z" stroke="#CCDDE2" stroke-width="5.32" stroke-miterlimit="10"/>
<path d="M625.967 401.452C630.372 401.452 634.597 399.701 637.713 396.586C640.827 393.472 642.577 389.246 642.577 384.841C642.577 363.333 642.555 341.824 642.508 320.315C642.508 307.536 644.977 283.223 625.967 283.223C612.941 283.223 609.287 294.708 609.297 305.561C609.297 330.223 609.317 354.885 609.356 379.548C609.356 383.498 609.356 387.449 610.63 391.142C612.773 397.413 619.439 401.452 625.967 401.452Z" stroke="#CCDDE2" stroke-width="5.32" stroke-miterlimit="10"/>
<path d="M623.044 417.074H628.91V398.508H623.044V417.074Z" fill="#D7E8F0"/>
<path d="M627.339 283.451C622.471 271.472 623.32 259.424 625.364 248.285C626.065 244.532 626.905 240.928 627.705 237.422C628.48 234.067 630.364 231.073 633.052 228.923C635.74 226.772 639.075 225.591 642.518 225.571H642.587C646.37 225.569 650.017 226.977 652.818 229.521" stroke="#CCDDE2" stroke-width="5.32" stroke-miterlimit="10"/>
<path d="M658.121 245.677C657.874 253.577 654.793 257.902 654.793 257.902" stroke="#CCDDE2" stroke-width="5.32" stroke-miterlimit="10"/>
<path d="M546.222 802.721C545.748 805.879 544.806 808.947 543.428 811.827C543.25 808.222 546.222 802.721 546.222 802.721Z" fill="#5A5A5A"/>
<path d="M480.373 798.969C481.212 791.404 486.11 781.104 490.248 769.342C486.96 780.195 481.874 791.226 480.373 798.969Z" fill="#5A5A5A"/>
<path d="M493.033 809.267C490.574 810.6 487.394 811.755 483.78 809.059C486.792 809.944 489.985 810.016 493.033 809.267Z" fill="#5A5A5A"/>
<path d="M491.967 760.187C491.97 757.664 491.452 755.166 490.446 752.852C489.44 750.537 487.967 748.456 486.12 746.736C489.231 749.195 492.283 752.938 491.967 760.187Z" fill="#5A5A5A"/>
<path d="M497.497 807.69C498.708 807.09 499.859 806.376 500.933 805.556C499.897 807.241 499.083 809.054 498.514 810.948C498.405 808.993 498.06 808.045 497.497 807.69Z" fill="#5A5A5A"/>
<path d="M513.505 819.252C509.268 821.741 504.617 822.214 501.654 819.637C505.763 821.632 510.009 820.753 513.505 819.252Z" fill="#5A5A5A"/>
<path d="M521.603 817.89C520.833 816.903 519.993 816.172 518.64 816.419C519.233 816.034 519.727 815.678 520.141 815.431C521.672 814.384 521.356 816.034 521.603 817.89Z" fill="#5A5A5A"/>
<path d="M526.047 821.524C530.283 821.178 535.685 820.724 539.922 816.656C539.675 817.041 539.468 817.505 539.221 817.989C536.87 822.857 530.748 821.524 526.047 821.524Z" fill="#5A5A5A"/>
<path d="M544.652 814.413C543.732 814.184 542.768 814.184 541.848 814.413C542.445 813.595 542.973 812.73 543.428 811.825C543.397 812.325 543.493 812.825 543.707 813.277C543.92 813.729 544.246 814.12 544.652 814.413Z" fill="#5A5A5A"/>
<path d="M549.096 815.363C548.326 815.225 547.625 815.047 546.993 814.909C551.476 814.662 556.276 814.839 560.028 810.741C557.224 814 553.372 816.202 549.096 815.363Z" fill="#5A5A5A"/>
<path d="M561.174 809.27C561.633 808.584 562.045 807.868 562.408 807.127C562.045 807.867 561.632 808.583 561.174 809.27Z" fill="#5A5A5A"/>
<path d="M564.136 802.861C563.929 803.542 563.702 804.194 563.475 804.836C563.734 804.191 563.955 803.531 564.136 802.861Z" fill="#5A5A5A"/>
<path d="M562.418 807.128C562.807 806.369 563.156 805.591 563.465 804.797C563.172 805.598 562.821 806.376 562.418 807.128Z" fill="#5A5A5A"/>
<path d="M564.443 774.587C564.26 774.29 564.02 774.032 563.737 773.829C563.454 773.625 563.133 773.48 562.793 773.402L565.035 772.247C564.73 772.995 564.53 773.783 564.443 774.587Z" fill="#5A5A5A"/>
<path d="M725.995 701.479C694.996 732.725 654.783 742.887 654.783 742.887C656.502 770.538 650.478 863.535 650.023 867.594C649.569 871.653 627.211 870.29 627.211 870.29L531.024 870.152C533.987 869.273 536.801 868.364 539.428 867.347C586.05 849.571 589.141 813.931 582.307 788.255C578.456 773.748 574.841 769.491 571.8 768.948C580.204 764.998 593.338 759.458 606.058 756.377C627.073 751.301 696.468 732.34 718.569 707.503C720.728 705.134 723.232 703.103 725.995 701.479Z" fill="#5A5A5A"/>
<path d="M717.7 504.414C717.7 504.414 684.617 474.423 647.396 514.705C621.157 543.116 620.101 564.793 621.789 575.133C622.718 577.253 623.343 579.494 623.646 581.789L626.974 584.03L624.693 583.813C628.831 592.188 643.081 624.806 625.394 645.959C604.932 670.411 579.325 702.249 510.216 729.19C510.216 729.19 475.889 719.107 466.537 742.571C466.537 742.571 477.637 740.596 482.121 743.865C461.491 741.84 393.242 743.41 393.242 743.41C393.242 743.41 350.896 749.681 340.418 787.85C329.94 826.019 343.963 834.057 364.84 858.538C368.79 863.13 375.703 866.952 384.699 869.964L332.083 869.895L336.537 862.153C341.475 850.095 329.496 847.784 329.496 847.784C317.299 846.737 320.45 839.587 320.45 839.587C307.493 758.115 310.159 636.035 313.942 605.065C317.724 574.096 312.184 583.102 312.184 583.102C302.417 593.679 245.564 605.065 245.564 605.065C272.425 588.81 281.708 567.538 286.37 517.351C290.922 468.586 264.792 450.623 263.281 449.606C263.27 449.601 263.258 449.599 263.246 449.599C263.234 449.599 263.222 449.601 263.212 449.606L364.692 419.091L433.178 408.514C432.131 411.743 430.344 410.904 426.907 411.388L420.853 412.267C421.088 412.28 421.313 412.355 421.508 412.483C421.705 412.611 421.863 412.789 421.969 412.997C422.052 413.245 422.1 413.505 422.108 413.768C422.779 427.929 431.983 440.145 443.903 447.265C460.395 457.141 483.622 456.894 500.509 447.887C512.626 441.409 518.759 428.976 518.196 415.486C588.647 424.157 668.816 451.334 717.7 504.414Z" fill="#5A5A5A"/>
<path d="M421.239 741.347L434.936 751.124L433.78 750.383C423.932 744.495 412.666 741.399 401.191 741.426L421.239 741.347Z" fill="#D7E8F0"/>
<path d="M520.092 812.213C520.062 812.675 519.945 813.127 519.746 813.546C519.697 811.788 520.131 810.81 520.092 812.213Z" fill="#D7E8F0"/>
<path d="M584.934 804.893C584.929 821.736 578.237 837.886 566.327 849.796C554.418 861.704 538.267 868.397 521.425 868.402H401.191C414.378 868.404 427.239 864.3 437.987 856.659C448.735 849.019 456.839 838.223 461.171 825.768C465.504 813.313 465.852 799.818 462.166 787.157C458.481 774.494 450.945 763.295 440.604 755.111C438.783 753.694 436.888 752.375 434.926 751.161H490.228C491.907 753.926 494.287 761.174 488.411 777.153C480.353 799.007 476.255 807.974 487.424 809.9C498.593 811.826 500.262 801.012 500.914 805.594C501.566 810.176 493.517 813.998 501.615 819.677C508.864 824.753 517.87 817.82 519.727 813.583C519.727 816.694 521.198 822.234 529.217 821.74C541.828 820.97 544.03 809.13 544.03 809.13C544.247 810.799 545.023 812.345 546.232 813.516C547.441 814.687 549.011 815.414 550.686 815.578C556.74 816.279 566.803 807.796 565.855 794.978C564.907 782.16 561.194 771.721 569.706 768.917C570.774 768.606 571.732 767.999 572.471 767.169C580.591 778.067 584.964 791.302 584.934 804.893Z" fill="#D7E8F0"/>
<path d="M540.267 332.047C540.116 332.067 539.964 332.067 539.813 332.047C540.238 334.111 541.008 336.313 541.532 338.525C541.945 340.184 542.122 341.893 542.055 343.601C541.492 351.63 535.824 355.966 528.111 356.183C528.302 358.022 527.933 359.874 527.051 361.5C526.17 363.124 524.818 364.445 523.173 365.288C519.045 367.461 512.31 366.967 509.16 363.155C505.486 358.701 507.303 353.2 509.555 348.342C510.355 346.623 511.165 345.014 511.826 343.542C512.636 341.715 513.337 339.898 513.959 338.042C516.16 331.179 517.861 324.166 519.045 317.056C520.514 309.89 521.483 302.63 521.949 295.33C521.465 293.543 521.771 290.985 521.07 289.128C520.052 286.249 518.199 283.738 515.747 281.919C510.7 278.206 504.005 278.453 498.652 275.165C493.811 272.143 489.993 267.735 487.691 262.514C487.226 261.428 486.812 260.026 486.18 258.801C485.887 258.143 485.456 257.558 484.916 257.083C482.496 255.058 481.104 258.623 479.632 260.045C478.113 261.451 476.312 262.515 474.348 263.168C472.385 263.82 470.304 264.045 468.246 263.828C466.691 263.625 465.177 263.179 463.762 262.504C462.721 261.936 461.748 261.254 460.859 260.47C459.81 259.444 458.587 258.614 457.245 258.021C454.726 257.033 454.588 261.24 454.232 262.672C453.531 265.269 452.307 267.373 449.858 268.597C448.495 269.267 447.001 269.628 445.483 269.654C443.714 269.718 441.947 269.481 440.259 268.953C438.631 268.467 437.085 267.744 435.667 266.81C435.413 266.635 435.115 266.536 434.807 266.524C434.499 266.512 434.195 266.587 433.929 266.741C433.662 266.895 433.444 267.121 433.3 267.394C433.157 267.666 433.094 267.974 433.119 268.281C433.603 281.979 420.784 286.748 415.531 288.111C413.555 309.837 419.481 333.894 431.331 352.529C430.888 355.307 429.757 357.931 428.043 360.163C419.382 362.335 409.398 359.995 405.655 352.529C401.705 344.629 402.218 333.578 408.391 327.9C404.115 327.248 402.91 320.918 405.369 317.204C405.576 316.859 405.685 316.651 405.537 316.296C405.013 314.864 398.723 313.679 397.004 313.126C394.551 312.244 392.337 310.804 390.537 308.918C388.737 307.033 387.401 304.754 386.635 302.263C382.991 290.244 392.234 277.426 403.799 274.513C400.362 268.459 395.809 263.551 393.923 256.549C392.037 249.548 393.113 242.22 398.476 236.996C400.642 234.931 403.289 233.438 406.177 232.652C409.064 231.865 412.103 231.81 415.017 232.493C416.722 233.734 418.233 235.222 419.501 236.907C418.718 235.758 418.094 234.508 417.644 233.194C421.562 234.528 424.998 236.992 427.519 240.275C423.006 233.51 424.685 224.296 429.771 218.341C435.894 211.162 447.942 209.582 456.356 213.265C456.963 213.549 457.548 213.878 458.104 214.253C458.913 215.24 459.713 216.228 460.523 217.156C460.616 216.903 460.722 216.656 460.839 216.415C462.54 218.167 464.151 220.003 465.668 221.916C471.139 206.402 492.816 206.362 504.271 214.46C506.97 216.382 509.179 218.912 510.72 221.847C511.307 224.423 511.259 227.104 510.582 229.658C509.881 232.117 510.444 233.974 512.014 234.497C513.199 234.784 514.447 234.622 515.52 234.043C519.727 232.147 523.193 229.836 528.061 230.36C544 232.048 555.555 252.708 546.133 266.198C545.578 267.036 544.945 267.823 544.247 268.548C542.914 269.911 539.932 271.422 539.31 273.308C539.293 273.352 539.293 273.402 539.31 273.446C538.124 277.396 546.914 278.315 549.264 279.372C569.943 288.013 565.559 330.714 540.267 332.047Z" fill="#3FBDF1" fill-opacity="0.3"/>
<path d="M420.853 412.207L426.907 411.328C428.575 411.097 430.145 410.404 431.441 409.328C432.736 408.251 433.703 406.833 434.235 405.235C434.447 404.683 434.586 404.106 434.649 403.517L434.719 403.033L435.489 397.216L440.713 364.884" stroke="#D4D4D4" stroke-width="5.32" stroke-miterlimit="10"/>
<path d="M509.16 363.194L509.654 407.338V408.74C509.678 410.166 510.194 411.539 511.113 412.629C512.033 413.719 513.299 414.459 514.7 414.724L518.235 415.426" stroke="#D4D4D4" stroke-width="5.32" stroke-miterlimit="10"/>
<path d="M415.462 288.052C413.042 314.113 422.078 343.572 439.034 362.977C470.636 399.171 497.299 362.977 497.299 362.977" stroke="#D4D4D4" stroke-width="5.32" stroke-miterlimit="10"/>
<path d="M522.265 296.128C521.346 294.4 521.889 291.289 521.089 289.107C520.046 286.242 518.19 283.742 515.747 281.917C510.691 278.224 503.995 278.451 498.652 275.182C493.789 272.145 489.952 267.713 487.641 262.463C486.91 260.804 486.338 258.256 484.896 257.051C482.476 255.076 481.074 258.582 479.583 260.014C477.489 261.968 474.855 263.246 472.025 263.682C469.195 264.12 466.298 263.694 463.713 262.463C461.313 261.288 459.664 258.918 457.166 257.979C454.667 257.041 454.529 261.179 454.154 262.631C453.472 265.208 452.248 267.312 449.789 268.556C445.414 270.719 439.429 269.297 435.607 266.739C435.351 266.566 435.05 266.468 434.74 266.457C434.43 266.448 434.124 266.525 433.857 266.68C433.588 266.836 433.37 267.064 433.224 267.337C433.08 267.612 433.016 267.922 433.04 268.23C433.642 285.463 413.24 288.534 413.24 288.534" stroke="#D4D4D4" stroke-width="5.32" stroke-miterlimit="10"/>
<path d="M444.239 325.943C454.438 325.943 462.706 317.676 462.706 307.476C462.706 297.277 454.438 289.009 444.239 289.009C434.039 289.009 425.772 297.277 425.772 307.476C425.772 317.676 434.039 325.943 444.239 325.943Z" stroke="#D4D4D4" stroke-width="5.32" stroke-miterlimit="10"/>
<path d="M492.115 324.315C502.314 324.315 510.582 316.047 510.582 305.848C510.582 295.649 502.314 287.381 492.115 287.381C481.915 287.381 473.648 295.649 473.648 305.848C473.648 316.047 481.915 324.315 492.115 324.315Z" stroke="#D4D4D4" stroke-width="5.32" stroke-miterlimit="10"/>
<path d="M436.526 309.343C436.526 309.343 443.962 317.875 451.625 309.343" stroke="#D4D4D4" stroke-width="5.32" stroke-miterlimit="10"/>
<path d="M484.56 309.343C484.56 309.343 492.006 317.875 499.66 309.343" stroke="#D4D4D4" stroke-width="5.32" stroke-miterlimit="10"/>
<path d="M462.716 307.479C462.716 307.479 466.903 300.665 473.638 305.85" stroke="#D4D4D4" stroke-width="5.32" stroke-miterlimit="10"/>
<path d="M454.223 280.083C454.223 280.083 435.054 265.427 418.967 279.253" stroke="#D4D4D4" stroke-width="5.32" stroke-miterlimit="10"/>
<path d="M510.295 272.39C510.295 272.39 487.533 264.44 476.541 282.532" stroke="#D4D4D4" stroke-width="5.32" stroke-miterlimit="10"/>
<path d="M430.66 351.876C430.615 354.944 429.608 357.921 427.779 360.384C425.949 362.848 423.392 364.674 420.468 365.603C411.008 368.408 400.994 361.297 396.896 353.101C395.397 350.269 394.711 347.079 394.915 343.882C395.119 340.685 396.204 337.607 398.051 334.989C398.217 334.726 398.327 334.432 398.375 334.125C398.423 333.819 398.409 333.505 398.333 333.204C398.255 332.902 398.118 332.62 397.93 332.374C397.74 332.127 397.503 331.922 397.231 331.77C395.393 330.666 393.872 329.103 392.818 327.236C391.763 325.368 391.212 323.259 391.217 321.114C391.219 320.211 391.319 319.311 391.514 318.428C391.574 318.106 391.567 317.775 391.492 317.456C391.418 317.136 391.277 316.836 391.08 316.574C390.883 316.313 390.634 316.094 390.348 315.934C390.063 315.773 389.746 315.675 389.42 315.643C388.454 315.559 387.496 315.397 386.556 315.159C383.921 314.225 381.542 312.687 379.608 310.669C377.674 308.65 376.238 306.208 375.417 303.536C371.466 290.609 381.45 276.803 393.884 273.692C390.17 267.174 385.262 261.921 383.228 254.356C381.194 246.791 382.389 238.97 388.166 233.331C397.103 224.582 412.262 227.307 419.481 236.906C414.612 229.618 416.439 219.703 421.9 213.294C428.487 205.591 441.444 203.912 450.48 207.833C454.795 209.729 457.561 213.649 460.503 217.116C466.429 200.476 489.685 200.327 501.98 209.097C508.429 213.679 512.636 222.024 510.532 229.618C509.446 233.479 511.441 235.79 515.47 234.003C519.677 232.146 523.143 229.796 528.012 230.319C544.899 232.107 556.878 255.225 544.198 268.508C542.865 269.91 539.882 271.381 539.26 273.268C537.818 277.297 546.795 278.274 549.136 279.292C570.081 288.091 565.489 331.246 539.813 332.115C540.583 335.799 542.341 339.858 542.055 343.64C541.492 351.669 535.824 356.004 528.111 356.251C528.674 359.865 526.432 363.608 523.173 365.327C519.045 367.529 512.31 367.005 509.16 363.193C504.222 357.169 509.308 349.279 511.826 343.541C515.539 335.127 517.356 326.062 519.045 317.055C520.583 309.596 521.573 302.035 522.008 294.431V294.115" stroke="#D4D4D4" stroke-width="5.32" stroke-miterlimit="10"/>
<path d="M229.359 102.403L221.833 131.724H222.041L224.599 125.038L278.153 83.6301L283.585 62.2991L229.359 102.403ZM248.863 41.2546C247.489 41.9846 246.283 42.9946 245.324 44.2192C244.364 45.4437 243.673 46.8559 243.293 48.3649L232.252 91.3034L286.932 49.0562L295.198 16.5659L248.863 41.2546ZM258.066 58.0428C257.405 61.4104 255.341 63.8595 253.445 63.504C251.549 63.1484 250.571 60.0772 251.272 56.68C251.973 53.2829 254.008 50.8239 255.904 51.209C257.8 51.5942 258.738 54.5864 258.066 57.9836V58.0428ZM230.415 129.541L231.995 129.116C232.62 128.854 233.293 128.722 233.97 128.731C234.719 128.734 235.457 128.905 236.13 129.23C236.804 129.556 237.396 130.028 237.863 130.613C238.33 131.197 238.66 131.879 238.829 132.607C238.998 133.336 239.001 134.094 238.839 134.824L229.803 170.623L258.037 162.92L274.884 96.5571L230.415 129.541Z" fill="#D7E8F0"/>
<path d="M213.341 476.603C217.192 446.661 218.989 416.126 222.752 385.956L223.364 381.236C224.421 373.079 225.665 364.922 227.186 356.853C227.236 356.464 227.309 356.078 227.403 355.698C228.272 350.918 229.23 346.178 230.366 341.428C233.595 327.217 241.792 316.818 249.791 305.244L250.295 304C267.585 278.827 277.161 249.159 277.847 218.627C278.035 207.586 277.6 185.761 264.94 181.238C257.829 178.69 250.295 183.658 246.354 189.336C244.708 191.675 243.38 194.221 242.404 196.91" stroke="#D4D4D4" stroke-width="5.32" stroke-miterlimit="10"/>
<path d="M149.901 328.978C137.319 374.059 116.373 416.524 106.073 462.227C96.6226 504.089 93.7784 565.011 133.438 593.097C168.289 617.786 218.979 611.702 257.928 602.281C269.266 599.585 280.427 596.191 291.347 592.119C299.761 588.999 307.641 584.9 315.868 581.543C315.868 581.543 300.768 731.926 321.793 847.104" stroke="#D4D4D4" stroke-width="5.32" stroke-miterlimit="10"/>
<path d="M149.91 328.987L151.994 321.501C154.768 311.573 154.1 301 150.098 291.5L145.97 281.624C143.274 273.408 142.435 269.428 145.812 261.389C147.417 257.599 149.666 254.114 152.458 251.089C160.615 242.093 172.101 237.619 183.922 236.098C195.742 234.577 208.818 235.762 218.338 243.426C224.796 248.64 230.879 261.024 226.692 269.102C223.621 275.027 217.133 276.706 211.602 274.593C209.669 273.875 207.928 272.719 206.517 271.215C199.999 264.382 185.778 262.989 180.9 269.625" stroke="#D4D4D4" stroke-width="5.32" stroke-miterlimit="10"/>
<path d="M155.184 230.152C154.196 226.34 154.345 221.521 156.616 215.339C159.875 206.501 169.365 200.694 178.618 196.882C181.996 195.48 185.354 194.334 188.326 193.435C198.419 190.325 209.489 188.685 220.204 189.772C223.826 190.128 227.41 190.812 230.909 191.816C234.943 192.985 238.802 194.689 242.384 196.882C251.272 202.303 257.197 210.559 260.822 221.393C263.952 230.735 265.167 241.845 257.405 247.681" stroke="#D4D4D4" stroke-width="5.32" stroke-miterlimit="10"/>
<path d="M227.996 261.705L230.751 267.206C234.198 270.988 238.977 273.378 245.564 271.739C258.402 268.539 259.686 257.913 257.415 247.722C257.032 245.873 256.537 244.05 255.933 242.261C252.971 233.284 248.26 226.055 241.742 220.781C237.107 217.036 231.753 214.279 226.011 212.684C221.343 211.334 216.527 210.561 211.672 210.383C202.104 210.08 192.555 211.417 183.438 214.333C174.313 217.127 161.84 221.937 155.194 230.193C153.706 232.003 152.531 234.049 151.718 236.246C149.674 241.796 149.328 246.3 150.049 249.934L150.691 253.232" stroke="#D4D4D4" stroke-width="5.32" stroke-miterlimit="10"/>
<path d="M193.669 211.782V211.752" stroke="#D4D4D4" stroke-width="3.55" stroke-miterlimit="10"/>
<path d="M337.169 858.765C337.087 861.733 335.852 864.553 333.726 866.626C331.601 868.7 328.752 869.866 325.782 869.874H229.359C227.192 869.877 225.073 869.241 223.265 868.047C223.337 865.087 224.563 862.272 226.681 860.202C228.799 858.133 231.641 856.971 234.602 856.967H331.076C333.234 856.986 335.345 857.609 337.169 858.765Z" fill="#D7E8F0"/>
<path d="M337.169 858.765C337.087 861.733 335.852 864.553 333.726 866.626C331.601 868.7 328.752 869.866 325.782 869.874H229.359C227.192 869.877 225.073 869.241 223.265 868.047C223.337 865.087 224.563 862.272 226.681 860.202C228.799 858.133 231.641 856.971 234.602 856.967H331.076C333.234 856.986 335.345 857.609 337.169 858.765Z" fill="#D7E8F0"/>
<path d="M221.863 131.744L243.303 48.3461C243.695 46.8421 244.394 45.4359 245.356 44.2162C246.318 42.9954 247.521 41.9875 248.892 41.2554L315.058 6L276.346 157.904L229.684 170.624" stroke="#D4D4D4" stroke-width="5.32" stroke-miterlimit="10"/>
<path d="M204.966 269.812V269.842L201.865 282.196L177.72 282.255L180.88 269.654L180.919 269.625" stroke="#D4D4D4" stroke-width="5.32" stroke-linecap="round" stroke-linejoin="round"/>
<path d="M200.868 190.522L215.266 133.482L231.995 129.077C232.604 128.813 233.258 128.676 233.921 128.672C234.671 128.677 235.408 128.851 236.082 129.179C236.755 129.507 237.347 129.981 237.814 130.566C238.28 131.153 238.61 131.835 238.779 132.565C238.948 133.295 238.952 134.053 238.79 134.785L224.855 190.463" stroke="#D4D4D4" stroke-width="5.32" stroke-linecap="round" stroke-linejoin="round"/>
<path d="M241.802 175.372L237.21 194.145" stroke="#D4D4D4" stroke-width="5.32" stroke-linecap="round" stroke-linejoin="round"/>
<path d="M217.32 275.422L212.57 294.818" stroke="#D4D4D4" stroke-width="5.32" stroke-linecap="round" stroke-linejoin="round"/>
<path d="M201.865 282.196L212.57 294.817H188.77L177.72 282.255L201.865 282.196Z" stroke="#D4D4D4" stroke-width="5.32" stroke-linecap="round" stroke-linejoin="round"/>
<path d="M258.094 57.9897C258.77 54.5984 257.795 51.5459 255.917 51.1717C254.039 50.7984 251.97 53.2445 251.295 56.6358C250.619 60.027 251.594 63.0795 253.472 63.4528C255.35 63.8271 257.419 61.3809 258.094 57.9897Z" fill="#D4D4D4"/>
<path d="M337.682 806.413C337.684 818.973 341.41 831.251 348.39 841.694C355.37 852.137 365.289 860.275 376.895 865.081C388.499 869.886 401.268 871.142 413.587 868.69C425.907 866.239 437.222 860.19 446.103 851.308C454.983 842.425 461.031 831.109 463.481 818.79C465.931 806.47 464.673 793.701 459.865 782.097C455.058 770.493 446.918 760.575 436.474 753.597C426.03 746.619 413.752 742.894 401.191 742.894C392.85 742.892 384.59 744.533 376.882 747.724C369.175 750.916 362.172 755.595 356.275 761.493C350.376 767.392 345.698 774.396 342.508 782.103C339.319 789.811 337.678 798.071 337.682 806.413Z" stroke="#D4D4D4" stroke-width="5.32" stroke-miterlimit="10"/>
<path d="M229.359 869.906H325.782C332.082 869.906 337.189 864.798 337.189 858.5C337.189 852.2 332.082 847.094 325.782 847.094H229.359C223.059 847.094 217.952 852.2 217.952 858.5C217.952 864.798 223.059 869.906 229.359 869.906Z" stroke="#D4D4D4" stroke-width="5.32" stroke-miterlimit="10"/>
<path d="M213.341 462.681C230.326 459.639 246.858 454.78 263.251 449.546C278.637 444.609 293.944 439.355 309.429 434.832C327.817 429.509 346.343 424.542 365.087 420.473C374.617 418.409 384.216 416.582 393.844 415.15C395.316 414.943 396.807 414.726 398.258 414.558C401.725 414.094 405.231 413.679 408.736 413.294C412.242 412.908 415.945 412.592 419.599 412.168C420.028 412.1 420.464 412.1 420.893 412.168C421.127 412.183 421.352 412.257 421.548 412.385C421.744 412.513 421.902 412.69 422.009 412.899C422.092 413.147 422.139 413.407 422.147 413.669C422.819 427.83 432.023 440.046 443.942 447.166C460.434 457.042 483.661 456.795 500.548 447.789C512.666 441.31 518.798 428.877 518.235 415.387C588.647 424.117 668.797 451.294 717.72 504.326L717.927 504.543C731.422 519.07 742.312 535.813 750.121 554.039C772.835 607.84 762.1 674.608 714.105 711.058C689.624 729.664 660.096 741.672 629.927 750.432C608.665 756.673 580.717 759.685 562.774 773.382" stroke="#D4D4D4" stroke-width="5.32" stroke-miterlimit="10"/>
<path d="M500.934 803.539C500.657 803.48 500.351 803.381 500.065 803.292" stroke="#D4D4D4" stroke-width="5.32" stroke-miterlimit="10"/>
<path d="M597.427 548.467C615.025 559.113 626.144 584.167 631.428 603.187C638.874 629.979 624.387 653.157 604.932 670.409C595.382 678.892 584.806 685.953 574.437 693.35C555.545 706.859 536.258 719.391 514.759 728.348C511.589 729.672 508.212 729.188 504.884 728.546C500.677 727.756 496.588 726.403 492.332 725.899C487.592 725.346 483.553 727.005 479.494 729.395C473.405 733.019 467.837 737.454 462.943 742.579L401.191 742.905C418.035 742.905 434.189 749.596 446.099 761.506C458.009 773.417 464.7 789.57 464.7 806.414C464.7 823.257 458.009 839.412 446.099 851.321C434.189 863.232 418.035 869.923 401.191 869.923H521.435C533.331 869.923 544.988 866.581 555.077 860.279C565.166 853.976 573.282 844.967 578.5 834.275C583.717 823.584 585.828 811.643 584.589 799.812C583.35 787.98 578.812 776.735 571.494 767.356" stroke="#D4D4D4" stroke-width="5.32" stroke-miterlimit="10"/>
<path d="M418.217 807.511C418.22 809.792 417.772 812.051 416.9 814.159C416.029 816.267 414.75 818.182 413.138 819.796C411.526 821.41 409.611 822.689 407.503 823.561C405.395 824.434 403.137 824.883 400.856 824.882C396.322 824.773 392.009 822.897 388.841 819.652C385.672 816.407 383.899 812.051 383.899 807.516C383.899 802.98 385.672 798.625 388.841 795.38C392.009 792.135 396.322 790.258 400.856 790.15C403.136 790.149 405.394 790.596 407.501 791.468C409.608 792.34 411.522 793.619 413.135 795.232C414.748 796.844 416.025 798.758 416.897 800.866C417.769 802.972 418.218 805.231 418.217 807.511Z" fill="#D7E8F0"/>
<path d="M547.911 778.843C548.909 781.958 549.361 785.222 549.244 788.491C549.191 791.837 548.679 795.16 547.723 798.366C547.407 799.453 547.072 800.509 546.736 801.536C546.578 801.941 546.43 802.307 546.272 802.682C545.318 804.73 544.58 806.871 544.069 809.071C543.665 811.501 544.158 813.792 547.032 814.878C548.554 815.348 550.16 815.476 551.737 815.256C553.313 815.037 554.822 814.472 556.157 813.604C568.64 804.637 567.02 787.326 562.862 773.391C561.934 770.28 560.887 767.338 559.791 764.701" stroke="#D4D4D4" stroke-width="5.32" stroke-miterlimit="10"/>
<path d="M544.386 807.45C542.707 811.795 539.448 817.325 535.498 819.834C535.498 819.834 535.438 819.834 535.409 819.893C533.646 820.911 531.681 821.527 529.653 821.698C527.625 821.869 525.585 821.589 523.677 820.88C518.433 818.53 519.914 813.316 521.87 808.941C522.492 807.598 523.114 806.363 523.647 805.307C527.982 796.241 528.871 787.047 527.844 776.559" stroke="#D4D4D4" stroke-width="5.32" stroke-miterlimit="10"/>
<path d="M521.909 808.914C520.862 811.511 516.527 817.99 512.271 820.32C509.091 822.068 504.499 821.97 501.635 819.649C496.095 815.185 499.195 807.068 501.724 801.824C506.089 792.758 508.241 781.49 505.595 771.595" stroke="#D4D4D4" stroke-width="5.32" stroke-miterlimit="10"/>
<path d="M463.022 742.582C471.08 742.582 476.314 742.848 478.822 743.046C479.959 743.118 481.073 743.395 482.111 743.866C500.153 752.566 486.14 784.987 482.308 792.927C480.333 797.084 477.677 806.308 483.8 809.063C485.525 809.698 487.367 809.949 489.199 809.799C491.03 809.649 492.807 809.102 494.406 808.194C497.885 805.999 500.774 802.984 502.82 799.415C502.82 799.415 502.82 799.356 502.879 799.287" stroke="#D4D4D4" stroke-width="5.32" stroke-miterlimit="10"/>
<path d="M654.309 740.761C655.524 782.406 654.566 826.815 649.737 870.297" stroke="#D4D4D4" stroke-width="5.32" stroke-miterlimit="10"/>
<path d="M155.174 869.906H783.065" stroke="#D4D4D4" stroke-width="5.32" stroke-miterlimit="10"/>
<path d="M475.978 352.677C475.978 352.677 486.12 353.665 493.132 341.962" stroke="#D4D4D4" stroke-width="5.32" stroke-miterlimit="10"/>
<path d="M425.475 197.04C425.475 197.227 503.768 198.906 503.768 198.906L500.005 235.534C500.005 235.534 496.45 240.294 481.054 245.044C465.658 249.794 436.2 252.806 430.788 233.125C427.536 221.361 425.752 209.241 425.475 197.04Z" fill="white"/>
<path d="M498.386 176.106C522.413 168.531 541.048 142.974 527.736 118.384C515.816 96.3616 487.671 90.9894 471.524 111.886C471.524 111.886 454.015 79.1882 424.823 92.0263C412.499 97.4578 402.801 110.424 399.276 123.233C392.462 147.981 408.884 167.179 431.865 173.44C431.865 173.44 454.252 179.602 465.244 164.423C465.244 164.423 470.399 170.773 484.412 173.44" stroke="#D4D4D4" stroke-width="5.32" stroke-miterlimit="10"/>
<path d="M421.426 169.447L430.847 233.539C431.056 235.041 431.576 236.483 432.375 237.772C433.175 239.062 434.236 240.169 435.489 241.024C443.133 246.11 461.926 254.06 493.754 240.53C495.575 239.75 497.155 238.498 498.329 236.902C499.503 235.306 500.228 233.425 500.43 231.455L506.454 172.775" stroke="#D4D4D4" stroke-width="5.32" stroke-miterlimit="10"/>
<path d="M543.398 811.827C543.22 808.222 546.193 802.721 546.193 802.721C545.719 805.879 544.777 808.947 543.398 811.827Z" fill="#5A5A5A"/>
<path d="M623.646 581.79L626.974 584.031L624.693 583.814C624.031 582.491 623.646 581.79 623.646 581.79Z" fill="#5A5A5A"/>
<path d="M483.8 809.061C479.948 807.936 479.316 804.222 480.373 798.969C479.879 803.314 480.719 806.75 483.8 809.061Z" fill="#D4D4D4"/>
<path d="M482.229 743.944C483.577 744.664 484.826 745.556 485.943 746.6C484.609 745.553 483.276 744.714 482.229 743.944Z" fill="#D4D4D4"/>
<path d="M490.288 769.334C491.105 766.766 491.645 764.117 491.898 761.434C491.764 764.134 491.222 766.797 490.288 769.334Z" fill="#D4D4D4"/>
<path d="M497.497 807.688C496.076 808.37 494.586 808.9 493.053 809.268C495.008 808.221 496.549 807.056 497.497 807.688Z" fill="#D4D4D4"/>
<path d="M498.583 811.824C498.692 815.607 499.847 818.165 501.635 819.636C497.744 817.779 497.685 814.096 498.514 810.946C498.557 811.237 498.581 811.53 498.583 811.824Z" fill="#D4D4D4"/>
<path d="M515.292 818.059C516.241 817.25 517.373 816.687 518.591 816.42C516.993 817.531 515.289 818.48 513.505 819.254C514.124 818.892 514.722 818.493 515.292 818.059Z" fill="#D4D4D4"/>
<path d="M526.047 821.524C522.511 821.811 521.81 819.747 521.603 817.89C522.788 819.44 523.736 821.524 526.047 821.524Z" fill="#D4D4D4"/>
<path d="M541.808 814.414C541.259 815.225 540.627 815.976 539.922 816.656C540.284 815.72 540.948 814.931 541.808 814.414Z" fill="#D4D4D4"/>
<path d="M544.721 814.414C545.353 814.562 546.084 814.73 546.963 814.908C546.181 815.018 545.385 814.842 544.721 814.414Z" fill="#D4D4D4"/>
<path d="M571.8 768.949C568.926 770.322 566.576 771.477 565.035 772.248C565.211 771.852 565.49 771.51 565.845 771.26C567.455 770.282 569.45 768.534 571.8 768.949Z" fill="#D4D4D4"/>
<path d="M520.092 812.213C520.062 812.675 519.945 813.127 519.746 813.546C519.697 811.788 520.131 810.81 520.092 812.213Z" fill="#D7E8F0"/>
<path d="M68.3886 293.462L12.0985 298.014C11.0176 298.101 9.93006 297.974 8.89838 297.64C7.86659 297.306 6.91074 296.772 6.08545 296.069C5.26006 295.366 4.58132 294.507 4.08814 293.541C3.59486 292.575 3.29662 291.521 3.21061 290.44C3.03858 288.259 3.73826 286.1 5.15617 284.434C6.57419 282.767 8.59481 281.731 10.7752 281.552L70.6797 276.683" stroke="#CCDDE2" stroke-width="5.32" stroke-miterlimit="10"/>
<path d="M77.1483 276.163H77.1185" stroke="#CCDDE2" stroke-width="5.32" stroke-miterlimit="10"/>
<path d="M309.616 279.027C317.726 279.027 324.301 272.453 324.301 264.342C324.301 256.232 317.726 249.657 309.616 249.657C301.507 249.657 294.932 256.232 294.932 264.342C294.932 272.453 301.507 279.027 309.616 279.027Z" stroke="#CCDDE2" stroke-width="5.32" stroke-miterlimit="10"/>
<path d="M804.199 867.889V584.038H876.043C881.703 601.267 885.738 618.989 888.091 636.971C899.122 722.719 891.379 850.409 804.199 867.889Z" stroke="#CCDDE2" stroke-width="5.32" stroke-miterlimit="10"/>
<path d="M804.199 674.657H891.745" stroke="#CCDDE2" stroke-width="5.32" stroke-miterlimit="10"/>
<path d="M804.199 758.136H887.163" stroke="#CCDDE2" stroke-width="5.32" stroke-miterlimit="10"/>
</g>
</svg>
