<svg width="110" height="36" viewBox="0 0 110 36" fill="none" xmlns="http://www.w3.org/2000/svg">
<path d="M105.979 22.6896L108.979 24.7034C108.005 26.1474 105.676 28.625 101.649 28.625C96.6489 28.625 92.925 24.73 92.925 19.7749C92.925 14.5022 96.6884 10.925 101.228 10.925C105.794 10.925 108.031 14.5815 108.755 16.5555L109.15 17.5625L97.3859 22.4644C98.2807 24.2398 99.6757 25.1406 101.649 25.1406C103.623 25.1406 104.992 24.1602 105.979 22.6896ZM96.7543 19.497L104.61 16.2112C104.176 15.1117 102.886 14.3301 101.347 14.3301C99.3861 14.3301 96.6622 16.0789 96.7543 19.497Z" fill="white"/>
<path d="M86.2875 1.33765H89.975V27.8876H86.2875V1.33765Z" fill="white"/>
<path d="M81.1285 11.611H84.8125V26.9902C84.8125 33.3721 80.9562 36 76.3975 36C72.1041 36 69.5201 33.178 68.5526 30.8868L71.9317 29.5144C72.5412 30.9254 74.0122 32.5956 76.3975 32.5956C79.3261 32.5956 81.1285 30.8219 81.1285 27.508V26.2653H80.996C80.1212 27.3008 78.4516 28.2329 76.3313 28.2329C71.9052 28.2329 67.85 24.4657 67.85 19.6114C67.85 14.7308 71.9052 10.925 76.3313 10.925C78.4384 10.925 80.1212 11.8442 80.996 12.8539H81.1285V11.611ZM81.3933 19.6114C81.3933 16.5562 79.3129 14.3295 76.6625 14.3295C73.9856 14.3295 71.7328 16.5562 71.7328 19.6114C71.7328 22.6275 73.9856 24.8153 76.6625 24.8153C79.3131 24.8284 81.3936 22.6275 81.3936 19.6114" fill="white"/>
<path d="M46.4625 19.7816C46.4625 24.8786 42.3225 28.625 37.2438 28.625C32.1653 28.625 28.025 24.8654 28.025 19.7816C28.025 14.6583 32.1653 10.925 37.2438 10.925C42.3225 10.925 46.4625 14.6583 46.4625 19.7816ZM42.4328 19.7816C42.4328 16.6045 40.0314 14.4199 37.2438 14.4199C34.4562 14.4199 32.0547 16.6045 32.0547 19.7816C32.0547 22.9324 34.4562 25.1434 37.2438 25.1434C40.0316 25.1434 42.4328 22.9324 42.4328 19.7816Z" fill="white"/>
<path d="M65.6375 19.775C65.6375 24.8758 61.6628 28.625 56.7875 28.625C51.912 28.625 47.9375 24.8756 47.9375 19.775C47.9375 14.6479 51.912 10.925 56.7875 10.925C61.6628 10.925 65.6375 14.6347 65.6375 19.775ZM61.7556 19.775C61.7556 16.5956 59.4504 14.4093 56.7741 14.4093C54.0978 14.4093 51.7926 16.5956 51.7926 19.775C51.7926 22.9282 54.098 25.1408 56.7741 25.1408C59.4636 25.1408 61.7556 22.915 61.7556 19.775Z" fill="white"/>
<path d="M14.2083 24.7926C8.57601 24.7926 4.16717 20.2472 4.16717 14.6126C4.16717 8.9782 8.57601 4.43286 14.2083 4.43286C17.2463 4.43286 19.4641 5.62963 21.1041 7.16274L23.8061 4.45984C21.521 2.2679 18.4696 0.600098 14.2083 0.600098C6.49265 0.600314 0 6.89398 0 14.6126C0 22.3312 6.49265 28.6251 14.2083 28.6251C18.3755 28.6251 21.521 27.2535 23.9809 24.6984C26.5079 22.1702 27.2875 18.62 27.2875 15.7422C27.2875 14.8412 27.18 13.9134 27.059 13.2276H14.2083V16.966H23.3624C23.0936 19.306 22.3543 20.9063 21.2655 21.9953C19.9481 23.3268 17.8648 24.7926 14.2083 24.7926Z" fill="white"/>
</svg>
