<svg width="41" height="40" viewBox="0 0 41 40" fill="none" xmlns="http://www.w3.org/2000/svg">
<path d="M39.9549 11.8062C39.9305 10.1275 39.62 8.46214 39.0257 6.89212C37.9857 4.21111 35.868 2.09114 33.187 1.05333C31.6369 0.470119 29.9981 0.157446 28.3394 0.121965C26.2061 0.0266106 25.5298 0 20.1145 0C14.6993 0 14.0052 1.48698e-07 11.8875 0.121965C10.231 0.157446 8.5922 0.470119 7.04214 1.05333C4.36113 2.09114 2.24117 4.21111 1.20336 6.89212C0.620143 8.44218 0.305252 10.0809 0.274207 11.7374C0.178852 13.8729 0.150024 14.5493 0.150024 19.9645C0.150024 25.3798 0.150024 26.0716 0.274207 28.1916C0.30747 29.8503 0.620143 31.4869 1.20336 33.0414C2.24338 35.7202 4.36113 37.8401 7.04436 38.8779C8.58777 39.4811 10.2265 39.8226 11.8897 39.8758C14.0252 39.9712 14.7015 40 20.1168 40C25.532 40 26.2261 40 28.3438 39.8758C30.0003 39.8426 31.6391 39.5299 33.1914 38.9467C35.8724 37.9066 37.9901 35.7867 39.0302 33.1079C39.6134 31.5556 39.9261 29.9191 39.9593 28.2581C40.0547 26.1249 40.0835 25.4485 40.0835 20.031C40.0791 14.6158 40.0791 13.9284 39.9549 11.8062V11.8062ZM20.1012 30.2051C14.4376 30.2051 9.84955 25.617 9.84955 19.9534C9.84955 14.2898 14.4376 9.70174 20.1012 9.70174C25.7604 9.70174 30.3529 14.2898 30.3529 19.9534C30.3529 25.617 25.7604 30.2051 20.1012 30.2051ZM30.761 11.7131C29.4371 11.7131 28.3705 10.6442 28.3705 9.32254C28.3705 8.00089 29.4371 6.93203 30.761 6.93203C32.0804 6.93203 33.1493 8.00089 33.1493 9.32254C33.1493 10.6442 32.0804 11.7131 30.761 11.7131Z" fill="white"/>
<path d="M20.1013 26.6127C23.7791 26.6127 26.7606 23.6313 26.7606 19.9535C26.7606 16.2756 23.7791 13.2942 20.1013 13.2942C16.4235 13.2942 13.442 16.2756 13.442 19.9535C13.442 23.6313 16.4235 26.6127 20.1013 26.6127Z" fill="white"/>
</svg>
