<svg width="140" height="36" viewBox="0 0 140 36" fill="none" xmlns="http://www.w3.org/2000/svg">
<g clip-path="url(#clip0_492_4890)">
<path d="M63.6666 31.8621C63.6666 33.954 65.0476 35.3563 67 35.3563C68.9523 35.3563 70.3333 33.954 70.3333 31.8621V14.1839H72.2381C73.9523 14.1839 75.4285 13.4023 75.4285 11.4253C75.4285 9.42529 73.9523 8.66667 72.2381 8.66667H70.3333V4.91955C70.3333 2.82759 68.9523 1.42529 67 1.42529C65.0476 1.42529 63.6666 2.82759 63.6666 4.91955V8.66667H62.1904C60.5238 8.66667 59.2619 9.83909 59.2619 11.4253C59.2619 13.1264 60.3809 14.1839 62.1904 14.1839H63.6666V31.8621ZM18.3571 4.85058C18.3571 2.66667 16.8809 1.44828 14.8809 1.44828C12.8809 1.44828 11.4047 2.66667 11.4047 4.85058V25.931C11.4047 27.3333 11.4047 29.6092 8.80949 29.6092C6.71425 29.6092 5.0952 28 3.23806 28C1.71425 28 0.642822 29.4943 0.642822 30.6667C0.642822 34.4598 5.97615 35.6552 9.19044 35.6552C13.4047 35.6552 18.3809 33.7241 18.3809 26.3908V4.85058H18.3571ZM20.2143 26.4368C20.2143 32.023 24.1666 35.6092 31.2143 35.6092C38.2619 35.6092 42.2142 32.023 42.2142 26.4368V15.0805C42.2142 12.9885 40.8333 11.5862 38.8809 11.5862C36.9285 11.5862 35.5476 12.9885 35.5476 15.0805V26.2989C35.5476 28.9195 33.4523 30.3678 31.2381 30.3678C29 30.3678 26.9285 28.9195 26.9285 26.2989V15.0805C26.9285 12.9885 25.5476 11.5862 23.5952 11.5862C21.6428 11.5862 20.2619 12.9885 20.2619 15.0805V26.4368H20.2143ZM60.9285 15.8851C60.9285 17.3333 59.7619 18.6897 58.1904 18.6897C56.9285 18.6897 54.3809 16.8506 52.2142 16.8506C51 16.8506 49.9523 17.3793 49.9523 18.5977C49.9523 21.5172 61.5476 21.0805 61.5476 28.2529C61.5476 32.4368 57.7857 35.6552 52.0476 35.6552C48.2857 35.6552 42.7142 33.6322 42.7142 30.8046C42.7142 29.8391 43.7381 28 45.5952 28C48.1904 28 49.3571 30.1379 52.5 30.1379C54.5476 30.1379 55.1428 29.5172 55.1428 28.3448C55.1428 25.4713 43.5476 25.908 43.5476 18.6897C43.5476 14.3218 47.3095 11.3563 52.5952 11.3563C55.8809 11.3333 60.9285 12.7816 60.9285 15.8851Z" fill="white"/>
<path d="M133.024 31.6091C133.024 33.7011 134.429 35.1034 136.405 35.1034C138.381 35.1034 139.786 33.7011 139.786 31.6091V4.68956C139.786 2.59761 138.381 1.19531 136.405 1.19531C134.429 1.19531 133.024 2.59761 133.024 4.68956V31.6091ZM97.5952 4.68956C97.5952 2.59761 96.1905 1.19531 94.2143 1.19531C92.2381 1.19531 90.8333 2.59761 90.8333 4.68956V13.2413C89.0476 11.793 86.7619 11.0574 84.4048 11.0574C77.1429 11.0574 73.5238 17.4022 73.5238 23.5171C73.5238 29.4482 77.8333 35.3562 84.6429 35.3562C86.9524 35.3562 89.5714 34.3907 90.8333 32.4597C91.2619 34.1149 92.3333 35.0804 94.2143 35.0804C96.1905 35.0804 97.5952 33.6781 97.5952 31.5861V4.68956ZM90.8333 23.0344C90.8333 26.0919 89.2381 29.5861 85.5238 29.5861C82 29.5861 80.2619 26.1838 80.2619 23.2413C80.2619 20.2758 82 16.8275 85.5238 16.8275C89.1429 16.8275 90.8333 19.9769 90.8333 23.0344ZM99.4524 31.6091C99.4524 33.7011 100.857 35.1034 102.833 35.1034C104.81 35.1034 106.214 33.7011 106.214 31.6091V14.8275C106.214 12.7355 104.81 11.3332 102.833 11.3332C100.857 11.3332 99.4524 12.7355 99.4524 14.8275V31.6091ZM102.833 1.88497C100.81 1.88497 99.0238 3.54014 99.0238 5.33324C99.0238 7.26428 100.81 8.96543 102.833 8.96543C104.952 8.96543 106.643 7.31025 106.643 5.33324C106.643 3.51715 104.857 1.88497 102.833 1.88497ZM131.167 15.4252C131.167 13.816 131.167 11.3103 127.929 11.3103C126.286 11.3103 124.881 12.4137 124.69 13.9309C123.19 11.9539 120.738 11.0574 118.262 11.0574C112.071 11.0574 107.095 16.3447 107.095 23.2413C107.095 30.3217 111.929 35.3562 118.262 35.3562C120.833 35.3562 122.952 34.3447 124.69 32.4137C125.167 34.0689 125.952 35.0804 127.929 35.0804C131.167 35.0804 131.167 32.5746 131.167 30.9654V15.4252ZM113.857 23.2643C113.857 20.2528 115.5 16.8505 119.214 16.8505C122.786 16.8505 124.429 20.2528 124.429 23.2643C124.429 26.2758 122.738 29.6091 119.214 29.6091C115.548 29.5861 113.857 26.2758 113.857 23.2643Z" fill="white"/>
</g>
<defs>
<clipPath id="clip0_492_4890">
<rect width="140" height="35.4023" fill="white" transform="translate(0 0.597656)"/>
</clipPath>
</defs>
</svg>
