<svg width="74" height="73" viewBox="0 0 74 73" fill="none" xmlns="http://www.w3.org/2000/svg">
<g clip-path="url(#clip0_492_4869)">
<path d="M73.9694 19.7708C72.9687 19.7708 71.9649 19.9837 71.1193 20.516C66.3652 23.5211 66.3652 27.6183 66.3652 30.4166V31.9374H52.6777M28.3444 41.0624H73.9694M51.1569 41.0624V72.9999M37.4694 71.4791C34.4277 71.4791 32.1464 66.9166 32.1464 66.9166C29.8652 62.3541 29.8652 59.3124 29.8652 54.7499V50.1874H5.53186V49.427L11.3779 26.6297C11.881 24.6675 13.0226 22.9285 14.623 21.6867C16.2233 20.4448 18.1914 19.7708 20.217 19.7708H23.7819L28.1832 28.5734C28.6885 29.5846 29.4656 30.435 30.4273 31.0293C31.389 31.6235 32.4973 31.938 33.6277 31.9374H46.5944M23.3256 13.6874C23.3256 13.6874 18.4589 10.6458 18.4589 6.84369C18.4589 6.14547 18.5965 5.45409 18.8637 4.80902C19.1309 4.16396 19.5225 3.57783 20.0162 3.08412C20.5099 2.59041 21.096 2.19877 21.7411 1.93158C22.3862 1.66438 23.0776 1.52686 23.7758 1.52686C24.474 1.52686 25.1654 1.66438 25.8104 1.93158C26.4555 2.19877 27.0416 2.59041 27.5353 3.08412C28.0291 3.57783 28.4207 4.16396 28.6879 4.80902C28.9551 5.45409 29.0926 6.14547 29.0926 6.84369C29.0926 10.6458 24.2381 13.6874 24.2381 13.6874H23.3256Z" stroke="black" stroke-width="3" stroke-linecap="round" stroke-linejoin="round"/>
</g>
<defs>
<clipPath id="clip0_492_4869">
<rect width="73" height="73" fill="white" transform="translate(0.96936)"/>
</clipPath>
</defs>
</svg>
