<svg width="20" height="21" viewBox="0 0 20 21" fill="none" xmlns="http://www.w3.org/2000/svg">
<path d="M17.314 13.7009L13.4575 11.9726C13.2828 11.8978 13.0922 11.8677 12.9029 11.8851C12.7136 11.9024 12.5316 11.9668 12.3734 12.0722C12.3574 12.0826 12.3421 12.094 12.3277 12.1065L10.3121 13.8209C10.2912 13.8323 10.2679 13.8387 10.2441 13.8395C10.2203 13.8404 10.1967 13.8357 10.175 13.8258C8.87942 13.2004 7.53734 11.8665 6.90956 10.5889C6.89911 10.5676 6.89367 10.5441 6.89367 10.5203C6.89367 10.4966 6.89911 10.4731 6.90956 10.4518L8.62962 8.41088C8.64198 8.39579 8.65343 8.37998 8.66391 8.36353C8.7679 8.20475 8.83072 8.02257 8.84668 7.83344C8.86264 7.64431 8.83125 7.45419 8.75534 7.28022L7.03936 3.43029C6.94191 3.20302 6.77338 3.01349 6.55907 2.89014C6.34475 2.76679 6.09621 2.71628 5.85075 2.74618C4.78396 2.88643 3.80473 3.41032 3.09606 4.21995C2.38739 5.02958 1.99777 6.06955 2.00001 7.14553C2.00001 13.5376 7.20018 18.7378 13.5922 18.7378C14.6682 18.7398 15.708 18.3502 16.5176 17.6415C17.3272 16.9329 17.8512 15.9538 17.9916 14.887C18.0214 14.6427 17.9716 14.3953 17.8495 14.1816C17.7274 13.9679 17.5396 13.7993 17.314 13.7009ZM13.5922 17.7582C7.74061 17.7582 2.97963 12.9972 2.97963 7.14553C2.97691 6.30789 3.27924 5.49791 3.83015 4.86692C4.38106 4.23593 5.14285 3.82711 5.9732 3.71683H5.99198C6.02488 3.71744 6.05682 3.72798 6.08363 3.74707C6.11043 3.76615 6.13084 3.79289 6.14219 3.82377L7.8647 7.66963C7.87452 7.69101 7.87961 7.71426 7.87961 7.73779C7.87961 7.76132 7.87452 7.78458 7.8647 7.80596L6.14137 9.85175C6.12858 9.8664 6.11685 9.88195 6.10627 9.89828C5.99843 10.0629 5.93493 10.2526 5.92192 10.449C5.9089 10.6453 5.94682 10.8417 6.03198 11.0191C6.75609 12.5016 8.25002 13.9841 9.74884 14.7082C9.92729 14.7929 10.1247 14.8299 10.3217 14.8156C10.5187 14.8013 10.7086 14.7362 10.873 14.6266C10.8885 14.616 10.904 14.6046 10.9187 14.5923L12.9334 12.878C12.9533 12.8673 12.9753 12.861 12.9979 12.8596C13.0204 12.8582 13.043 12.8617 13.0641 12.8698L16.9213 14.598C16.9528 14.6115 16.9793 14.6344 16.9971 14.6637C17.0148 14.693 17.0228 14.7272 17.0201 14.7613C16.9104 15.592 16.502 16.3544 15.8711 16.9059C15.2403 17.4575 14.4302 17.7604 13.5922 17.7582Z" fill="black" fill-opacity="0.8"/>
</svg>
