<svg width="61" height="53" viewBox="0 0 61 53" fill="none" xmlns="http://www.w3.org/2000/svg">
<path d="M10.6855 42.9736V50.9736M50.6855 42.9736V50.9736M4.68555 50.9736H16.6855M44.6855 50.9736H56.6855M2.68555 6.97363V38.9736C2.68555 40.0345 3.10697 41.0519 3.85712 41.8021C4.60727 42.5522 5.62468 42.9736 6.68555 42.9736H54.6855C55.7464 42.9736 56.7638 42.5522 57.514 41.8021C58.2641 41.0519 58.6855 40.0345 58.6855 38.9736V6.97363C58.6855 5.91277 58.2641 4.89535 57.514 4.14521C56.7638 3.39506 55.7464 2.97363 54.6855 2.97363H6.68555C5.62468 2.97363 4.60727 3.39506 3.85712 4.14521C3.10697 4.89535 2.68555 5.91277 2.68555 6.97363Z" stroke="black" stroke-width="3"/>
</svg>
