<svg width="70" height="57" viewBox="0 0 70 57" fill="none" xmlns="http://www.w3.org/2000/svg">
<path d="M35.6875 54.9688C38.3454 54.9688 40.5 52.8141 40.5 50.1562C40.5 47.4984 38.3454 45.3438 35.6875 45.3438C33.0296 45.3438 30.875 47.4984 30.875 50.1562C30.875 52.8141 33.0296 54.9688 35.6875 54.9688Z" fill="black"/>
<path d="M22.3809 36.2793L25.7833 39.6794C28.4502 37.1406 31.9902 35.7229 35.6723 35.7188C39.3544 35.7148 42.8974 37.1248 45.5699 39.6577L48.9699 36.2577C45.3961 32.8206 40.629 30.9027 35.6705 30.9072C30.7121 30.9117 25.9485 32.8358 22.3809 36.2793Z" fill="black"/>
<path d="M12.1758 26.0769L15.5782 29.4769C20.9488 24.2267 28.1598 21.2851 35.6703 21.2806C43.1809 21.2761 50.3953 24.2091 55.7722 29.4529L59.1723 26.0528C52.8943 19.9049 44.456 16.4638 35.6691 16.4683C26.8822 16.4728 18.4474 19.9226 12.1758 26.0769Z" fill="black"/>
<path d="M69.375 15.8455C60.3971 6.99323 48.2956 2.03052 35.6875 2.03052C23.0794 2.03052 10.9779 6.99323 2 15.8455V15.9008L5.37838 19.2792C13.4497 11.3159 24.3309 6.84907 35.6693 6.84456C47.0078 6.84006 57.8925 11.2982 65.9702 19.2551L69.375 15.8503V15.8455Z" fill="black"/>
</svg>
